<mxfile host="app.diagrams.net" modified="2023-06-24T05:05:58.340Z" agent="Mozilla/5.0 (Windows NT 10.0; Win64; x64) AppleWebKit/537.36 (KHTML, like Gecko) Chrome/114.0.0.0 Safari/537.36" etag="wYTwtMRo8e6xMDTDggIH" version="21.5.0" type="github">
  <diagram name="第 1 页" id="8iAXUiAXgHowkbLSpvmA">
    <mxGraphModel dx="2577" dy="1977" grid="1" gridSize="10" guides="1" tooltips="1" connect="1" arrows="1" fold="1" page="1" pageScale="1" pageWidth="827" pageHeight="1169" math="0" shadow="0">
      <root>
        <mxCell id="0" />
        <mxCell id="1" parent="0" />
        <mxCell id="cDRR3Oy688OnCp_IIDSk-1" value="" style="shape=image;verticalLabelPosition=bottom;labelBackgroundColor=default;verticalAlign=top;aspect=fixed;imageAspect=0;image=data:image/png,iVBORw0KGgoAAAANSUhEUgAABCkAAAI/CAYAAABaqYPbAAAAAXNSR0IArs4c6QAAIABJREFUeF7s3QmYFdWd9/G/K4KAgtqoARUEl0HEBHCANy6JtCaaoE4yHZAEFTQkkYCAyhoQwtKgNEIwigIuEwR7xnFJxCiYEZMXmAiJCr5GQVDBDRUiCo1LzPv8y5ybc6ur7q26a9Wtbz2PT5Su5dTn1O1Qv3vO/+z397///e/ChgACCCCAAAIIIIAAAggggAACCJRZYD9CijL3AJdHAAEEEEAAAQQQQAABBBBAAAFHgJCCBwEBBBBAAAEEEEAAAQQQQAABBCIhQEgRiW6gEQgggAACCCCAAAIIIIAAAgggQEjBM4AAAggggAACCCCAAAIIIIAAApEQIKSIRDfQCAQQQAABBBBAAAEEEEAAAQQQIKTgGUAAAQQQQAABBBBAAAEEEEAAgUgIEFJEohtoBAIIIIAAAggggAACCCCAAAIIEFLwDCCAAAIIIIAAAggggAACCCCAQCQECCki0Q00AgEEEEAAAQQQQAABBBBAAAEECCl4BhBAAAEEEEAAAQQQQAABBBBAIBIChBSR6AYagQACCCCAAAIIIIAAAggggAAChBQ8AwgggAACCCCAAAIIIIAAAgggEAkBQopIdAONQAABBBBAAAEEEEAAAQQQQAABQgqeAQQQQAABBBBAAAEEEEAAAQQQiIQAIUUkuoFGIIAAAggggAACCCCAAAIIIIAAIQXPAAIIIIAAAggggAACCCCAAAIIREKAkCIS3UAjEEAAAQQQQAABBBBAAAEEEECAkIJnAAEEEEAAAQQQQAABBBBAAAEEIiFASBGJbqARCCCAAAIIIIAAAggggAACCCBASMEzgAACCCCAAAIIIIAAAggggAACkRAgpIhEN9AIBBBAAAEEEEAAAQQQQAABBBAgpOAZQAABBBBAAAEEEEAAAQQQQACBSAgQUkSiG2gEAggggAACCCCAAAIIIIAAAggQUvAMIIAAAggggAACCCCAAAIIIIBAJAQIKSLRDTQCAQQQQAABBBBAAAEEEEAAAQQIKXgGEEAAAQQQQAABBBBAAAEEEEAgEgKEFJHoBhqBAAIIIIAAAggggAACCCCAAAKEFDwDCCCAAAIIIIAAAggggAACCCAQCQFCikh0A41AAAEEEEAAAQQQQAABBBBAAAFCCp4BBBBAAAEEEEAAAQQQQAABBBCIhAAhRSS6gUYggAACCCCAAAIIIIAAAggggAAhBc8AAggggAACCCCAAAIIIIAAAghEQoCQIhLdQCMQQAABBBBAAAEEEEAAAQQQQICQgmcAAQQQQAABBBBAAAEEEEAAAQQiIUBIEYluoBEIIIAAAggggAACCCCAAAIIIEBIwTOAAAIIIIAAAggggAACCCCAAAKRECCkiEQ30AgEEEAAAQQQQAABBBBAAAEEECCk4BlAAAEEEEAAgUQJzKydL+3bt5Oa713s3HdDwz6ZPu0WGXh5jXTq1CFlUX//w86/m/28kPRc55zTS3r26pYowyjfrF9/2m3etGmL3HtPvYwbf638+pHH5arBIz1v6bw+Z8uixXXSunUr5+f2cU2bHuL8WabnZO2a9bJq1RoZPWao85yNHTNVFi9amnatLl1OlbvvnZf27EXZl7YlW0Cf6WXLHpQZtRPEfAb8RPTz8sTjT8k1QweJ+V15xJGtUp+9eXMXFu33586du2TwoJHSs2c35/Pn3krZNr/Pvt2mQYP7BzLN9PTpPU+ZPFsmThqV+p2l+8fx/6cIKZL9e4a7RwABBBBAoOIF9C+j06fNldl1Nzp/cTN/YezX71LpekZn58Wxd+8ejcII/YvdaaedIgsXLpEnVz6dcrL/MhnHv/xVfIeLSLYXKTtsaGhokDvvWCLDhl8l+u/mL/nvv78r9YJlzLwCiTAhhTsMCxKomGvbgYfdh/oMTps6x/kjd+BhXtTM87twUZ1n6GY+E3oOv5dP94uWO8DR9p1fXZNqmvta6mTCIPex7vtZu3Z9WjiUhGc2Dvfofp4ytdn0v/l8bN26TaqqjpQtW151wkHdNKS4+ocD0l6oC+FgP8+vvfaGjB491DNIzrVt+vvjioHDZHbd5NR5ze+Ur339q/LIw79N+xxl+5x7hZ+5OHiFFH7BRS7nL+UxhBSl1OZaCCCAAAIIIFAWAftbM7sB+pdH/dnpp/9LWrvcf2nUv8wed1zbRn/RJaQoS3emXTTMi9MNo38q7733XtpohidW1It+u6vf+Pa/7FInpNAAa8GCe1PBll4w7Igbd3hw24JZsnjRfTmNpDDnGj9hRNq3whoMvP769lTwoM/p0qUPpV7w775rmfS9+ALnJVCf6euvmyI33Tyx0agNEzBk+jbX/RnQNr311tvOy5gd9Oi36+6XOP3vl1/aIhd9q4/Td3qsbu5vuM1xVW2OIqQo/0crrQXmxf+YY472HJng1Vw7mLJ/rs/ZoMGXyY+H3CAbNryY+pH7+c6FwN1Ov+c+l7Zpe0wg6HU//1n/iBPAPPfsC2mjTcoxkkLbpyNJ7IDdtDlTSJiLeTGOIaQohirnRAABBBBAAIFICNgvikEaZP6SrH+BXb36GecFTDf7G3D7myn9Bp7pHkFki7eP9seokTfKuPHDA0+ZMCHUiJFDnFDCPQXDbq15JswxHTqcIMOHjc94Q+ZbZL/RD0E1zMuNjvTRTb+N9hq6bs6XycKEOe5vlU34ouf48MOPAg85d49Qct+Te1qV/XP782VPGTDhBSMpgj4hpdvP9KeGtfaIGXcLvF6ATSCggaCZGmeHXoUcSeA1xSNTQFeotmW6h1KMpHD/f92M2vFOWOie+qFtKdYIlkI+jYQUhdTkXAgggAACCCAQWQGvKQC3zl8s519wbtrLrXmZO/74LzkvbNu3v+kM7TXf+C1dtkBWrHjK+csfIUX5uzvXkEL7vkWL5qJBhY400JeVd9993/mLvW7uKUBe3/7rM7Xg9nvk5Ze3eNaVMCGFTiWx61Fo8KHhlnnZC1KXQtuXLaTINlrCq5aAOa/WaTHBXLZaA+qj9zZz5nzPEQ92uOKu6WJPt7JruZjPZ9+LvyG/mLeIkRTl/2h5tsAOn9zPpNfUAt1fQyf9faphoD77OsVjTt0CZ3qSPh9+I93CEHiFDfbxXjUqwrbNa0SE3sPXz/uqzL3lzkbNNWFluUZSeNWnIKQI81SxLwIIIIAAAgggUEQB+4WqadOmqW+S9JLuv8jpX3ZNIKFDd/VbJ32B+3bfC5wRFRddVO0M5SWkKGKHhTh12JDCvDA888dnnWDhiCNaOcOi+/e/RPpUn516HlaueNqpoaBD028YPVSu+cnYtCJ85i/7zZs3k7ff3iE9e3ZPTWcwzTfTKL7z3W9J27bHOIGIqXXRrVvX1FQNr7DMTZAtpPAajm9PhfEaSm+PhtD7DRpSmPOqmVdhWfe0E70X8xLpFcjYffj+e7t8w48QjwW7FkHAK2CyQwt3SGEHe2ZqnE5P0s+Vhr0bN/7FqQWjxWt1y1SkONPteAWIfr8XzLPZteu/iP5/gY5MCto29wu+PUJC2/ffDyyXjz76qFER5iJ0hecpjb/+UItAM5KiVPJcBwEEEEAAAQQQCCmgfwHVQmZHVR0pv3vy955H20OUH/3NSml33LGi84v/vaavTPzZLGcev77MaqAx9KeDZf4vFhFShOyHYu0eNqTQQOCEE46TtWvXiRa5u6Tv5b5NMy/U+vJhNjPdwnz7e9RRR8iePQ2yY8d7aUUA7ToSxR5J4R794zUSQgOTUSMnpUZ8uF84/aZguHFM3Qgd8eA19cR83vxWLPEKU+wX3UwjNIr1DHHezAJBRgK4z+AuMGyvqKT7mhf+7//gu3L7bXc7L/Zt2x7ruQJOptb51VEJ+nvBa1qSV9v0pd9vJIU+6xquPfroCqep9kpRfrUv/O7Jq25OtudTDSZOuk6mTL7ZGa2i02pOOrkDNSmywfFzBBBAAAEEEECg1AJ+Q869hrt6TfHQJSp102/IdYWPww9rIaecepLzImpGXzDdo9S92vh62WojeLXQnj+uRe7MMqH2N8H6LaupRaJFH5s2O0R09IVZTtT87M9/2uBcQufq20Us9c/8alLkUqvCbySFGa3ht3KHff/ub7b1ZyZoCBJSZBpSHyQoMW2xp6Wonz2Cg5Ci/J8pvxZ4FRS2pyC5f+5XE8jUpnCPWgsyzSioTraQIp+2edWY0Hs58qgj5H9+94esIymy1agIeo/2fhq+6ugsM8pPf8Z0j1wkOQYBBBBAAAEEECiDQJA5ue6/bNt/qTQjKpjuUYbO87hktuVGg4QUfoUA7akJdrBgBwZmGUMzHcj+FtUcY9ef8FPLtrKBV0iRqQaF13XMt8Y6rcWv8r8eZxc4NOfJtQaFn78uCzxt+liZNXO+b+HSIMFLNJ7CZLTCK1yzRyJ4/d7UWiy6Wo7WH3FPB/Er5loIzWwhhXskUZC2mWN0FJGGEbrp7wj9PGnxXp3OpSPw9HeAbhp065RBDV9sO7+RKZlW1wliYt8DIUUQMfZBAAEEEEAAAQTKIGCGptvL3Pk1w57yke0bQ3MOliAtQ6e6LplpFQm/1oUdSaFDve3AQQtGXnXVAOnfb0jaJebOmyZPP70mtXSp10udXlu/9Xz11e1y9dXfb1THwq/NXiGF31Keeg59YXnk4cfliiv7Oad0T/dwXyfTSIpMhTDNuf2KaOrPdQqVDj+3h8z7LWXJSIryf6YyPYNaTyLIpkFXu+O+JHv37nWed52G4K5HYkYz5Pty7tWebCHFG2+8Hbpt5neNHUjqSKDHlj/pjLLTaV1mhJW2SZc1vmboIOezaOreaN2NYoykMJ95M3qCkCLIU8o+CCCAAAIIIIBARATCjqTQom5+BQWDFDyMyG1XZDNyfaF1hxRBR1LoUGrd7GX9zEgKU/TPHtlhTyUxL/p6vH4Tq1NHdJ7+0qUPBVrJwi+kmDZ1TqO+tZdADbqCSJCQwmupVn0Z1c3L0Lx86s/dq5v4LaWaa59W5AMes5vyWobTBMU9zjzDWU1n48aXZP6tM+SmWfOdu9MVlLQ48VtvvR14+dsgLNlCCj1Hrm1zF8y8/ropTt0iralhQgqtUaHTyEw9mq5dT5PnntsoGs7ZYYYGd4Xa3CMp/EZLeS0TW6g2FOo8LEFaKEnOgwACCCCAAAKxEAgTUmhhRS26qX+RNvOl7RUT4vCXvVh0So6NzGUki/n21n6RNzUp7Ga4v+30qyPhDin0HPZwbr2OztvX58gUk7TPFaaWQ45MHIZA0QTco9XsqUJmic9Fi+ucZX5181sZJtvqNWFvIFtIkWvbTF0W87vfXZfI/H7RUSO333GTLFq4JG0542yFNLNN+/JzMOc1wWBDQwM1KcI+NOyPAAIIIIAAAggggAACCCCAAAIIuAUYScEzgQACCCCAAAIIIIAAAggggAACkRAgpIhEN9AIBBBAAAEEEEAAAQQQQAABBBAgpOAZQAABBBBAAAEEEEAAAQQQQACBSAgQUkSiG2gEAggggAACCCCAAAIIIIAAAggQUvAMIIAAAggggAACCCCAAAIIIIBAJAQIKSLRDTQCAQQQQAABBLwEdr3zsbzy/Aeya8fHqR/rv+uf67bznX2xgNu7+zP5uOFvRWvrsR0OLdq5OTECxRR4c8ueYp6+YOfmM1YwSk5URIFifJ6atTxQblx2ZhFb3fjUhBQl5eZiCCCAAAIIIJBJQMOHdSt3OKHEuhU7wEIAAQQQQACBMgoQUpQRn0sjgAACCCCAQHkETDDhhBP/GCFRnpZwVQQQQAABBBCwBQgpeB4QQAABBBBAIDECGkisuG9bxhETrdo0kdZtDpEOXVqmXFpVNRH9c930Z3HY3nl9b6qZLY84OA5Npo0IxFLg3e0NqXbvf8B+csQx8fgdEUtsGp0YgVJPd2K6R2IeLW4UAQQQQACBaAhoOFE/Z7NTa8K9afjQvU+V88caTJx4+mHRaDStQAABBBBAAIGSCBBSlISZiyCAAAIIIICACqxYss35xy+cqB7QDigEEEAAAQQQSLAAIUWCO59bRwABBBBAoFQCOmpCR0+4a05oKKEjJ8z0jVK1h+sggAACCCCAQDQFCCmi2S+0CgEEEEAAgYoR8Bo9odM4akZ0JJyomF7mRhBAAAEEECiMACFFYRw5CwIIIIAAAgh4CCwY80Ja7QlTc4JpHTwuCCCAAAIIIOAlQEjBc4EAAggggAACRRFwBxQ6emJIbeeiXIuTIoAAAggggEBlCBBSVEY/chcIIIAAAghESsAdUHSvrnKmd7AhgAACCCCAAAKZBAgpeD4QQAABBBBAoKAC7oBCwwkNKdgQQAABBBBAAIFsAoQU2YT4OQIIIIAAAggEFiCgCEzFjggggAACCCDgIUBIwWOBAAIIIIAAAgURIKAoCCMnQQABBBBAINEChBSJ7n5uHgEEEEAAgcII1M/ZLOtW7EidjCkehXHlLAgggAACCCRNgJAiaT3O/SKAAAIIIFBgAQ0nNKQwG0UyCwzM6RBAAAEEEEiQACFFgjqbW0UAAQQQQKDQAq88/4HoNA+zscxooYU5HwIIIIAAAskSIKRIVn9ztwgggAACCBRMYNc7H8uMK9cTUBRMlBMhgAACCCCAACEFzwACCCCAAAII5CRgF8ps1aaJjL2rW07n4SAEEEAAAQQQQMAIEFLwLCCAAAIIIIBAaAH3Sh5DajuLTvVgQwABBBBAAAEE8hEgpMhHj2MRQAABBBBIoMCKJdtE/zEbAUUCHwJuGQEEEEAAgSIJEFIUCZbTIoAAAgggUIkC7kKZ1QPaif7DhgACCCCAAAIIFEKAkKIQipwDAQQQQACBBAhQKDMBncwtIoAAAgggUGYBQooydwCXRwABBBBAIC4CFMqMS0/RTgQQQAABBOIrQEgR376j5QgggAACCJRMgEKZJaPmQggggAACCCRagJAi0d3PzSOAAAIIIJBdgEKZ2Y3YIzoCa9esl2XLHpQZtROkadNDotMwWoIAAgggEEiAkCIQEzshgAACCCRRYOfOXTJl8myZOGmUtG7dKkUws3a+nHNOL+nZq1vFs8S9UKa+sJ5fXRO4n55YUe/0K30fmCxyOzY07JOxY6ZKv36XZvyM6udYt9FjhqbuYdOmLXL9dVPkppsnSqdOHRrdm/783nvqZdz4a1MBiJ6nfft2UvO9ixvtrz+bNnVOVqNBg/t7hirFDFxyfca97tfLJetNswMCCCDgI0BIwaOBAAIIIICAj4DXX+L9/mJfiYjugOLE0w8TXW60Erb6+x92bsPrxVL/POl9H5c+1n4aPGikPLny6axNPq/P2bJocZ0TOHqFVxoUtGjRXObecmfauewAweu5MaFI7949Gj1PdqBpH6vXX7VqjROQZHrBzxSAZL3hLDvk8oznGmzk21aORwCBZAkQUiSrv7lbBBBAAIEQAvZfyPUwv5ch++UnxOkjvat7JY9WbZrI2LsqZ+RImJAiaX0f6QczQ+O8RjjZYYA5VD/Xo0beKOPGD5c//2lDKqwyoxZ05NScugUy8PKatNEUGkZMn3aLXHRRtcycOT9jMDJ+wggngAg7kuLXjzwuVw0eGbgL/EZgBDlB2N9vL7+0pdGopIWL6qRP9dmNfjd26XKq3H3vPM/RKEHaxj4IIJBsAUKKZPc/d48AAggg4CPgfrmYUTve+cbTPfVDX1zmzV0oV/9wQNqUkLjDVlKhTPNyab90Zgopkt73cX12NWTQ8MCMlrDDCHvqxq3zF8v5F5ybeoHW/z7r7J7y2PLfpT7HeuyddyyRYcOvSk3ryGXqhTs48RqJ4DeSQp/RrVu3pU1HKVTf5PKMa0hhRn9oO9Tj9de3p5pkRiV5fd4K1W7OgwACyRAgpEhGP3OXCCCAAAI5CLi/afSqT1GJIUUlBRTa7WFDCj0mqX2fw8ekrIcEHalgGmlGOLj72K45oz9zBwdmSof+TAtybt/+ZqPaFObFPVPRzqDTxbwCFhMK+E1RCtsRYZ9xr5Di0UdXOJe1a3QQUoTtCfZHAAG3ACEFzwQCCCCAAAI+AuYv8fpj/SY2CSMpKi2gyDekSFLfJ+0XQaZ6D+6QQkc1rF79jBxzzNHO6ArddOqHe0qIfU49JszUDZ06YQIIr7YVK6QI+oz7jaTQ6R52gEtIkbRPEveLQOEFCCkKb8oZEUAAAQQqQMB8c7p40VLRFR9OOrlDxdekcAcUNSM6Svfqqtj3pt9ICvcLpJnfrzesq0Mkqe/j3MkaKFwxcJhs2PCi722468boC/+okZNkdt3krPUl9Lno3Plk+drXvyoP/NejqSkg7ilDXqMkso208vq5aZvWdPjvB5b7rg6i93TrL2fIrJnznWc16Kb3M3HSdTJl8s2hnnG/mhQarNirorRte6xngBO0feyHAAIIEFLwDCCAAAIIIOAhoPPUu3XrKjp0W+tQ6FbJ0z0qNaDQfgs73SNpfR/3XwDZlr90BwFmZY9MxR29zumuU+Hex6tIpx12+jnbAYoJXHRfd+HJQo6kyOUZ9xtJYUZ/GI8RI4c49TwqrU5P3D8ntB+BOAkQUsSpt2grAggggEBJBcLO2XbPay9pY3O8mK7iUT9ns+hyo2arlBEU5n7ChhR6XBL6PsdHJnKHhR1JYQpl/mf9I850Df3mX0fO9Ot3qfTs9cUKNkFCCvdz5bW6SNiRFHqOHmeeIf/zuz80mkpSyJAil2c8W0hhf94qsZhw5B58GoRABQsQUlRw53JrCCCAAAL5CVT6i6p7mVHVqrSAQu+JkCK/z0HUjw47ksLrmXA/I0FCCj2PqR2hdRncq4GY65ipQ36O7qkofjUd4hJSBC0OGvXnivYhgED5BAgpymfPlRFAAAEEIi7gDikGDxopT658ulGr3S8ZEb8tp3nrVuxwRlDYWyUGFIUKKSqp7+PwfIZpY9iRFH7PhH3NoCGFOcZvSduwIykyta3YIUW2ZzxTTQq33fRpc2V23Y0VtSxzmGeSfRFAID8BQor8/DgaAQQQQKBCBUxlflNMsaGhoSJqUujoiRX3bXNCCrO1atPEGUFx4umHVVRvBqkH4L5h7e/u3c+Qn/x4tFRa31dU51o3U4iRFCYcsEc92Ktt6M9NTQqdjnFJ38szcuo0Et3uvac+MLtduFVXDunQ4QQZPmx8xuPNMU2bHhL4OrpjLr/fMk33cK9k4rYL1Th2RgCBxAsQUiT+EQAAAQQQQCApAiuWbBP9x940oPhR7Wmi/8uGAAIIIIAAAgiUW4CQotw9wPURQAABBBAosoDX1A69pC4vqiMo2BBAAAEEEEAAgagIEFJEpSdoBwIIIIAAAgUU0Gkd61bucP7Rf7e3Sp3eUUA+ToUAAggggAACZRIgpCgTPJdFAAEEEECgGAImnHBP69BraThRfVk7ZwQFGwIIIIAAAgggEEUBQooo9gptQgABBBBAIKCAhhI739knWzbsblRvwpxCw4nufaqkekC7gGdlNwQQQAABBBBAoDwChBTlceeqCCCAAAIIhBawAwkNJV55/oOM5yCcCE3MAQgggAACCCBQZgFCijJ3AJdHAAEEECidgFl2c8vG3aW7aMArbfy/O2Xf3s8a7X3gQfvLZ59+HvAsIgc3PUCOPPYQObbDoYGPYcfiCdhLvWa7CtNwsgnx8zgLZPssfHf4iXLmBW3ifIu0HQEECiRASFEgSE6DAAIIIBBNAR1tsP7JdyXbX5Cj2XpahQACCCRDgJAiGf3MXSIQRICQIogS+yCAAAIIxFJgwZgXsk6JiOWN0WgEEECgwgQIKSqsQ7kdBPIQIKTIA49DEUAAAQSiKaC1G+rnbG4UUJx4+mHOChcdTmsZuYavXf62fPrx5/LpJ5/LfvvvJ02aHSA61WPv7k9Tbd2xrSFQu5u1PFDa/0tL6dyrdaD92an4Aq++8M8pRgccuL+0O7l58S/KFRCIkcBBTfaXrmcfGaMW01QEECiWACFFsWQ5LwIIIIBAWQR0eoeOoLA3neuvS29qQBHnTcMX3fQeta6G/nem4pl6vxrMaChDvYM49zxtRwABBBBAIDkChBTJ6WvuFAEEEKh4AXdAoS/pNSM6Oi/qlbyZsEJrb/iFFkmxqOR+5t4QQAABBBBIggAhRRJ6mXtEAAEEEiCgL+ozrlyfulN9Kf9R7WmxHz0RtuvUYd3KHeK1RKlZkrR7n6rEuYR1ZH8EEEAAAQQQKI8AIUV53LkqAggggEABBdw1KPRlfOxd3Qp4hXieygQWK5ZsS7sBE1ZUD2gXzxuj1QgggAACCCBQsQKEFBXbtdwYAgggkBwBLZJplhhN6giKTL2tYcWK+7Y1WoYVq+R8RrhTBBBAAAEE4iJASBGXnqKdCCCAAAKeAu46FENqO1d8DYpcHwW10kDHFODU8zCqIldNjkMAAQQQQACBYggQUhRDlXMigAACCJRM4IYLV6eupdMXmMKQmd5vCgh2JXtkuRACCCCAAAIIZBAgpODxQAABBBCIrYDWWjD1FqhDEa4bNay4fczGtFEVukyprobChgACCCCAAAIIlEuAkKJc8lwXAQQQQCAvAfdqHkzzCM/pNaqCoCK8I0cggAACCCCAQOEECCkKZ8mZEEAAAQRKKGCPojjx9MNEQwq28AIEFeHNOAIBBBBAAAEEiidASFE8W86MAAIIIFAkAfcoCl1uVKd7sOUuYIc+ehZGVORuyZEIIIAAAgggkLsAIUXudhyJAAIIIFAmAfuFmoKPhesEgorCWXImBBBAAAEEEMhNgJAiNzeOQgABBBAokwCjKIoL7w4qCIGK683ZEUAAAQQQQCBdgJCCJwIBBBBAIFYC1KIofncRVBTfmCsggAACCCCAgLcAIQVPBgIIIIBAbAQYRVGarnIX09R6H937VImOqmBDAAEEEEAAAQSKKUBIUUxdzo0AAgggUFAB+xt+fXHWgplsxRHQoKJ+zmZ55fkPnAuod82IjqIrqbAhgAACCCCAAALFEiCkKJYs50UAAQR7zR2GAAAgAElEQVQQKLjAjCvXi74860athILzNjqhWt8+ZmPKXIOKH9WexkoqxafnCggggAACCCRWgJAisV3PjSOAAALxErCnejCKonR95xVUMIKldP5cCQEEEEAAgaQJEFIkrce5XwQQQCCmAiw7Wr6O0ykfC8a8kGpA9+oqZ+oHGwIIIIAAAgggUGgBQopCi3I+BBBAAIGiCNxw4erUefWbfB1NwVY6AVb8KJ01V0IAAQQQQCDJAoQUSe597h0BBBCIiYD9TT5TPcrXae7CpRTSLF9fcGUEEEAAAQQqVYCQolJ7lvtCAAEEKkiAqR7R6EyvFT8opBmNvqEV/xRYu2a9LFv2oMyonSBNmx4CDQIIIIBAzAQIKWLWYTQXAQQQSKIAUz2i0+t2AVNtVdxHtugL7fnVNQ7woMH9Uy+2O3fukimTZ8vESaOkdetWqQ6YWTtfzjmnl/TsxfK30Xkq01vS0LBPxo6ZKv36XZqxn7QvdRs9ZmjqBJs2bZHrr5siN908UTp16tDoFvXn995TL+PGX5sKQPQ87du3k5rvXdxof/3ZtKlzslLZz569czEDl1yfca/79XLJdtOmnxYvWursOn7CCKcvgpqZ8y9cVJeyL3X/ZLtHfo4AArkJEFLk5sZRCCCAAAIlEmCqR4mgQ1wmboU09cXlioHDZMOGFxvdpXkxcv/A6wXO76UuBB27FlhA+2TwoJHy5Mqns575vD5ny6LFdU7oZIdT5kANClq0aC5zb7kz7Vx2gFB//8POz+xAwrxs9+7do1FQYYda9rF6/VWr1jgv5Zle8DMFIFlvOMsOuTzjuQQbXtamaU+sqE8FSXrupk2beo5+8XL3ur1S90++fcDxCCDgLUBIwZOBAAIIIBBpAaZ6RLN74lRIM5dvee2XMe0Bvxdh+8U3mj2VnFZ5jXKxwwAjoX07auSNMm78cPnznzakQgczakFHz8ypWyADL69JG02hYcT0abfIRRdVy8yZ8zMGI2FHBZgg5NePPC5XDR4ZuNP8RmAEOUHYZ/zll7akRh2Z8+sohj7VZzf6fHTpcqrcfe88x09dX399u+dIk7DttEc1uY8tRf8wfShIj7EPAvkLEFLkb8gZEEAAAQSKKMBUjyLi5nnq+jmbZd2KHc5ZdNpHVAtphg0p3MPNZ9SOd77tdk/90JeieXMXytU/HJA2JSRPVg7PUUBfhjU8MKMl7DDCnrpx6/zFcv4F56YCCP3vs87uKY8t/12qL/XYO+9YIsOGX5X6Zj+XqRfu4MRrJILf86mjArZu3ZY2HSVHmkaH5fKMa0hhRn/oCU34YE5uRpeYsMCEPGFDijCjY+yQptT9U6i+4DwIINBYgJCCpwIBBBBAILICdv2DuNc+iCxyHg2LSyHNTNM97Nu357a7v2X2qk9BSJHHw1OgQ8PWL7Cn92SavuMODsyUDm22FuTcvv3NRrUpzIt7pqKdQacMeQUsYV/2sxGHfca9QopHH13hXMau0eEVUpi6L9napP2joZ/5vOn0DzsIdLfZBEl6Xq1DUqr+yXYf/BwBBPITIKTIz4+jEUAAAQSKKMBUjyLiFujUGlTcPmaj6P/qFsUwybxwfu3rX5Vn/vhso2+mvV4IzcuQ3pN+C89IigI9MBE6TaZ6D+6QQkc1rF79jBxzzNHO6ArddOqHe0qIfU49JszUDTsk82pbsUKKoM+430gKne5hh3iFGElhhxQaPpjimtpWM8VK/92EFDpNppT9E6HHmKYgUJEChBQV2a3cFAIIIFAZAjOuXJ96+R1S21lOPP2wyrixCruLqK/4oS+cTzz+lAwafJnnqg/uYfX2qgNa2O+kkztQkyLCz2yQkTLu2iH6wj9q5CSZXTc5a30JnVLQufPJoiHXA//1aGoKiLtIo9coiWyjbbx+btqmNR3++4HlvquD6D3d+ssZMmvm/LSX+GxdpfczcdJ1MmXyzc5xQZ9xv5oUOs3DXhWlbdtj0wKcsOGK7Rh0JMX9yx6Sr571ryXpn2y+/BwBBPIXIKTI35AzIIAAAggUQcD94jtree8iXIVTFkpAa1NojQqzda+ucmpURGFzr6QwfdpcmV13o1NHQl+u7P/W9mqNgm7duooO29c6FLox3SMKPendhmw1R9xBgFltwi7u6D6z1znddSrc+3gV6XQvs+l1B3aAYgIX3c8UnjTHhH3Zz9RjuTzjfiMpTC0K4zFi5BBnhIOp1WLCnC9/pYvvKjvaVjOSxB1SBBlJoQUtS9E/0f0U0DIEKkuAkKKy+pO7QQABBCpGwJ7qEcUpBBUDXcAbca/4EZWgwv2Nt/mmWufR33nnr+SmmyemreKgJGHn62dadaCAxJzKQyDsSApTKPM/6x9xpmvoN//6Ityv36Wp5TCDhBTuaQ1eq4uEHUmh5+hx5hnyP7/7Q6OpJIUMKXJ5xrOFFKZr3PdsXI44spVnHQ89zv6M5jKSwiukKEb/8AFEAIHSCBBSlMaZqyCAAAIIhBSgHkVIsIjsHrWgwv2iYphMvQC7kKJNSEgRkQcqQDPCjqTQU7qfC/d/Bwkp9DymdoTWZXCvBmKu4x4J4L4l91QUv2c2LiGF+7NjlnvV+773nvq0Ipv251H/XUdlFCqkKFb/BHgk2QUBBPIUIKTIE5DDEUAAAQSKI2AvPUo9iuIYF+usUQoq3MsSusMJszqEzsvv2atbisT9ojV40Eh5cuXTjcjcL5jFMuW8/gJhR1J4hRTuswcNKbxesu1zhR1JkaltxQ4psj3jmWpS2PdsT6GyR19k6yd7uodfW9z9ZC9B6rVsbDH6h88iAggUX4CQovjGXAEBBBBAIKQAS4+GBIvg7u6gQqfs/Kj2NGf1j1JuOrT//AvOTRUgtFdQsNthwgodWdG+fTtnVQbzAtTQ0EBNilJ2WshrFWIkhQkH7FEP7mfFvATrdIxL+l6esZU6jUQ3HTkQdDPPm+6vK4d06HCCDB82PuPh9kt60OvofiasC/OMZ5ru4V7JxNiZz59ZISfsSIpM06jcoUSp+kenlrAhgEBxBQgpiuvL2RFAAAEEchCwX3B1RQ8dScEWPwGvoEKLabJKS/z6khYjgAACCCBQKgFCilJJcx0EEEAAgcAC1KMITBX5Hd1BhTa4ekA76d6nquSjKiKPRQMRQAABBBBAQAgpeAgQQAABBCInQD2KyHVJXg1yLyerJ9NpHxpUaGDBhgACCCCAAAIIGAFCCp4FBBBAAIFICVCPIlLdUbDGaL+uW7lDdGSFvRFWFIyYEyGAAAIIIFARAoQUFdGN3AQCCCBQOQLrVuyQ+jmbnRuiHkXl9Ku5k1ee/8DpXw0t3GGF9ne3846iZkXldTt3hAACCCCAQGABQorAVOyIAAIIIFAKAepRlEK5vNfwG1VhWqWjKzSw6HBaS2daCIU2y9tfXB0BBBBAAIFSChBSlFKbayGAAAIIZBVYMOYF0W/bddNVPXhBzUoW2x00rNC+Xv/ku6k+97oZDSpat/li2T+zhGmrqtIuZZov8mt/+TB1inYnNZdmLQ7M95QcjwACERZo2vxAp+4OGwIIhBcgpAhvxhEIIIAAAkUScBdYnLW8d5GuxGmjJqB9v+K+baLTfdgQQACBuAt8d/iJcuYFbeJ+G7QfgbIIEFKUhZ2LIoAAAgh4CVA0k+fC1KrQERZbNu52aleYkTXoIIAAAnERIKSIS0/RzigKEFJEsVdoEwIIIJBQAepRJLTjs9y2CS52vrMvVXBz1470wptRl/t//7tL3tj8UaNmnnXJsVFvOu1DAIEsAr9/6M1GexBS8NggkLsAIUXudhyJAAIIIFBgAbseRfWAdqL/sCGAAAIIIIAAAggkR4CQIjl9zZ0igAACkRe44cLVqTZSNDPy3UUDEUAAAQQQQACBggsQUhSclBMigAACCOQiQD2KXNQ4BgEEEEAAAQQQqCwBQorK6k/uBgEEEIitgBZH1OkeuumyozqSgg0BBBBAAAEEEEAgWQKEFMnqb+4WAQQQiKwARTMj2zU0DAEEEEAAAQQQKJkAIUXJqLkQAggggEAmAbtoZs2IjtK9ugowBBBAAAEEEEAAgYQJEFIkrMO5XQQQQCCqAnbRzFnLe0e1mbQLAQQQQAABBBBAoIgChBRFxOXUCCCAAALBBCiaGcyJvRBAAAEEEEAAgUoXIKSo9B7m/hBAAIEYCKxbsUPq52x2WkrRzBh0GE1EAAEEEEAAAQSKJEBIUSRYTosAAgggEFyAopnBrdgTAQQQQAABBBCoZAFCikruXe4NAQQQiImAXTRTlx7V0RRsCCCAAAIIIIAAAskTIKRIXp9zxwgggEDkBCiaGbkuoUEIIIAAAggggEBZBAgpysLORRFAAAEEjABFM3kWEEAAAQQQQAABBIwAIQXPAgIIIIBAWQUomllWfi6OAAIIIIAAAghESoCQIlLdQWMQQACB5AlQNDN5fc4dI4AAAggggAACfgKEFDwbCCCAAAJlFbCLZtaM6Cjdq6vK2h4ujgACCCCAAAIIIFA+AUKK8tlzZQQQQAABEaFoJo8BAggggAACCCCAgBEgpOBZQAABBBAomwBFM8tGz4URQAABBBBAAIFIChBSRLJbaBQCCCCQDIFXnv9AdLqHbq3aNJGxd3VLxo1zlwgggAACCCCAAAKeAoQUPBgIIIAAAmUToGhm2ei5MAIIIIAAAgggEEkBQopIdguNQgABBJIhUD9ns+gSpLpVD2jn/MOGAAIIIIAAAgggkFwBQork9j13jgACCJRdYMaV60XrUug2pLaznHj6YWVvEw1AAAEEEEAAAQQQKJ8AIUX57LkyAgggkGgBu2imQsxa3jvRHtw8AggggIDIzNr5cs45veT117fL6tXPyIzaCdK06SHQIIBAggQIKRLU2dwqAgggECWBOK7s0dCwT8aOmSr9+l0qPXtlLvK5ds16WbVqjYweM9Rh12OnT7tFBl5eI506dYhSV9CWfwjU3/+wbN26LdVn2WDCPA/ZzsXPoymQ7ZnYtGmLPPH4U3LN0EGpl+sjjmwl995TL+PGXyvz5i50Xri9fl/oy/i0qXN8b3zQ4P6NXtD1mPbt20nN9y5OHadtMNfze5kP8/to585dMmXybJk4aZS0bt0qdR0THvj97vNqWy69aq7Ttt2xsn3bm2m/R3M5n/sYvb/Bg0ZKz57divJZD2NdiPvhHAhUogAhRSX2KveEAAIIxEDALprZvbpKakZ0jHyrM72Ump8tXrQ08H2MnzAi8F+SA5+UHXMWMC8vo0cP9Q2h3C9w2f4758ZwYCQEgjwTGmTopgFXVdWRsmXLq05AoZuGFFf/cEDay765sUwv/XrdO+9YIsOGX5UaRRAmPMjn95HXdfyube7F3V59UT+/uqZRH9q/89TtqsEjA/VzoX5XGhe96GuvvSGZPut2w/jdH6ib2AmBggkQUhSMkhMhgAACCIQRiOPKHmG+OefbtDBPQ+n3NS+fT658OuvFu3Q5Ve6+d54zAsbrGbD72v5mPeuJ2SFSArk8E3/+0wbPF20dBTFo8GXy4yE3yIYNL6bu037ZDjOSwuulf+GiOulTfbYzKsB+ju3n1Vw4zO8jO5DQ493nN+c8r8/ZsmhxnRPAPPqblXLSyR3kiCNaOaMwqqvPlY0b/5IWwrrbYMIde1SInlv//Ljj2mYdrRb24TGf3WOOOdppl35Wr79uitx088Sso9v43R9Wm/0RyE+AkCI/P45GAAEEEMhRYMGYF+SV5z9wjo5y0Uz9i/WyZQ86w651M9M9dEj39GlzZXbdjZ7fkubIwmElEvD6ptrr0l7TdDJNAfB78SrRbXGZPATyfSZ0VMATK+pTL9f2y7bXlIwwIyncL/j631qzwWzmRT/faWXu4GRG7XjnZd499UOvY0aJvP/+rkZTXrRd9nQ3/e9cQgq9diF+z/pN8cgUVPC7P48PE4cikKcAIUWegByOAAIIIJCbwA0Xrk4dGOWimfaLhPvbNP2ZbqbuhP6F94qBw9K+OfXS8fqmMzdFjiqHgN/Qd/3zUSNvlHHjh2f9ZrYc7eaaxRHQ3wNr166X44//kuh0Lx0toVM85tQtEP2sa4Dgrl2RqRaFu5U6KuPSSy9yrmF+1+gL9KOPrnB21aklphaFHVLoz3L5feQeSeFVn8IOKVaueDo1msSMFMl1uoeGPCZ8UbdsNUGC9KiZVmIHSPZxfgEGv/uD6LIPAsURIKQojitnRQABBBDIIBCXopnubz/dIUWmb+Hsv8TbxeeU5db5i+X8C87lRbaMn5Iw8+G1mTq03h6W7jViwv1NcRlvj0vnIJDLM6F1KExQaa9KoaMqli5b4Ex50LoSv37kcWc/vxEP2Wqb+I2k0OkedojgN5IizO8j0xZtr05xyjaSQn+/6fmXLX1I+vW/xAlMvD4LmUZS2L9b9bo6CkPd8i027A6S9dx+YaL2/9KlDzlTWHR0iF2MlN/9OXygOASBPAQIKfLA41AEEEAAgdwEdJqHTvfQ7cTTD3Ome0Rxcw/H9pqX7PdNX5iXgijee1LblG0FA+PiftFhFEV0nphcikZ6raRh7ijIM+G1soX5HfD9H3xXbr/t7rSVfYK00a754FeTwozSMLUV2rY91vPFPujvI7tdOvJA60wEqUmhwWuzZs1k+LDxzkgSXdEkyHQPU3vC/t2qU+l0xZRu3bqmzhHEy/0E+vVpkM8qv/uj83mmJckUIKRIZr9z1wgggEBZBeJQNNNrDrlXSOFX/d/vpSDfOeNl7bgKvLiZ22++4Q7yQmoYzJx1na+v32b37t0jbbRFBXIl4pbCPBN+xS/N1AINMU3hTL9pGTpaIdeRFOa5Nb+vRowc4qwK4l5RJOjvIw0bNBzQOjz6XOuWbbqHjjrQaSV9L/5G2nSUbKt7uKdTmFETWnxTg5Ed77ybKlhbyAcvW0jB7/5CanMuBHITIKTIzY2jEEAAAQTyEKifs1nWrdjhnKF6QDvnn6htXlMy/Cq8e42myPRSkGlZwqg5VHp73KGE10tnpm/ZzRSBQi2RWOnecbi/MM+E3o8pptuzVzfPsEFfuN1LXbrDynxDCuMa9veO1/5ha1K4p7NpW7JN9/C6f1PPRUeDqKkJ/bItfxr2mcoWUvC7P6wo+yNQeAFCisKbckYEEEAAgSwCcVnZw30bfiGF1+36vSwUqlo9D1n+AqbQqf0NcJiRFCag+M53LpKXX95SlG99879LzhBGIOwz8cYbb8vevXudOjNaNNNdFNeEXnbQlctSp++/tytt+oR7tIe5R78X+jC/j3INKex71c/UM3981ncJUvdKKvbvRVOI05ht3/5mWn2IMP3ptW+2kMLv97kdRmVqQxjrfO+F4xGoVAFCikrtWe4LAQQQiLBAXFb2cBOG+cut/RdVMxzaDPv2qzIf4S6ruKaZwKlr19Pkuec2Oveny8zqKBedT6/fivttXqMn3HP5Mx1fcZgVckO5PhMm2Ohx5hnSokVz2bjxJZl/6wy5adYXq/+Y5+qtt952/t2sxGGzZRstkKkmhX0evxA0zO8jd0iRrSbFyy9tEZ3aYf9eyzaSwhSe/fJXuqRWIDG1LGbOnJ/y69fvUuf23PUt8nnkwvwet8OfoCv3hLHO5z44FoFKFiCkqOTe5d4QQACBCArEZWUPm86eApBp6L99TKZCdRHslsQ1yV3oMNvKDvoCpZsuHele6cONZ54XpoDE67HK9ZnQpUF1RQgz7cGMlOjf/5JGK8K8/PJWee+995xRF0E3vyVIdalOs0ynriZiNq/nM+jvI/M5ML/nGhoastaksKd7BClwqec+4YTj5KJv9Ulb4UiDDQ0ojGWxgr8wIQW/+4M+peyHQGEFCCkK68nZEEAAAQSyCGgtCq1JoVv36iqpGdERMwQQQAABBBBAAAEEHAFCCh4EBBBAAIGSCsRhZY+SgnAxBBBAAAEEEEAAgZQAIQUPAwIIIIBASQXsopk6ikJHU7AhgAACCCCAAAIIIKAChBQ8BwgggAACJRWwi2YOqe0sJ55+WEmvz8UQQAABBBBAAAEEoitASBHdvqFlCCCAQMUJ2EUz9eZmLe9dcffIDSGAAAIIIIAAAgjkLkBIkbsdRyKAAAIIhBSIwsoe2oad7+wL2fLy7f7mlj2pi7dodbC0aHVQ+RrDlQsuYPfv/gfsJ0cf36zg1+CECCAQb4EDDtxPTviXlvG+CVqPQAgBQooQWOyKAAIIIJCfgF00s1Qre+hqIls27pZXnv9ANKBgQwABBBBAIE4C3x1+opx5QZs4NZm2IpCXACFFXnwcjAACCCAQRqBUK3toILHyvu1OMMGGAAIIIIBAnAUIKeLce7Q9FwFCilzUOAYBBBBAICcBe2WPYhTN1JES9XM2Zw0n4lSs893tDbJ75yeBvON0X4FuqEJ2KldYxvNQIQ8QtxEbgWJ91gkpYvMI0NACCRBSFAiS0yCAAAIIZBewV/YodNFMndahAYV70xe1Vm2aSIfTWjoriei/syGAAAIIIIAAAghEU4CQIpr9QqsQQACBihMoZtFMe4SGgdMwomZER5Y4rbgniRtCAAEEEEAAgUoWIKSo5N7l3hBAAIEICegwWA0TdNMAYexd3QrSOq+AQsMJLczJhgACCCCAAAIIIBAvAUKKePUXrUUAAQRiK1CMlT3cAYVO59BaF2wIIIAAAggggAAC8RQgpIhnv9FqBBBAIHYChV7Zwx1QlGpJ09jB02AEEEAAAQQQQCBGAoQUMeosmooAAgjEWaCQK3swgiLOTwJtRwABBBBAAAEE/AUIKXg6EEAAAQRKIlColT3sERnacKZ4lKT7uAgCCCCAAAIIIFASAUKKkjBzEQQQQCDZAoVa2cM+DwFFsp8p7h4BBBBAAAEEKlOAkKIy+5W7QgABBCIlUKiVPWZcuV40qNCtkCuERAqLxiCAAAIIIIAAAgkWIKRIcOdz6wgggECpBApRNNM9zUOXMNWggg0BBBBAAAEEEECgcgQIKSqnL7kTBBBAILIC+YYU7mke1QPaif7DhgACCCCAAAIIIFBZAoQUldWf3A0CCCAQSYF8V/awj2eaRyS7mEYhgAACCCCAAAIFESCkKAgjJ0EAAQQQyCSQz8oe7mkeQ2o7Oyt6sCGAAAIIIIAAAghUngAhReX1KXeEAAIIREogn5U9mOYRqa6kMQgggAACCCCAQNEFCCmKTswFEEAAgWQL2Ct76AgIHQkRdLNHUTDNI6ga+yGAAAIIIIAAAvEVIKSIb9/RcgQQQCAWAvkUzbSniVAsMxbdTSMRQAABBBBAAIG8BAgp8uLjYAQQQACBbAL1czbLuhU7nN3CBA2Mosgmy88RQAABBBBAAIHKEyCkqLw+5Y4QQACBSAnkurIHoygi1Y00BgEEEEAAAQQQKIkAIUVJmLkIAgggkFyBXFb2YBRFcp8X7hwBBBBAAAEEki1ASJHs/ufuEUAAgaIK5Lqyx4wr14seq1uYKSJFvRlOjgACCCCAAAIIIFB0AUKKohNzAQQQQCC5AlqLQmtS6BZ0ZQ/3sqOzlvdOLiB3jgACCCCAAAIIJEyAkCJhHc7tIoAAAqUUyGVlj1yOKeU9cS0EEEAAAQQQQACB4gkQUhTPljMjgAACiRcIWzTTPYpi7F3dpFWbJol3BAABBBBAAAEEEEiKACFFUnqa+0QAAQTKIBC2aCYFM8vQSQm/5M6du2TK5NkycdIoad26VUpD/3zUyBtl3Pjh0qlThzSlTZu2yL331Mu48ddK06aHOD+bWTtf2rdvJzXfuzjhotw+AggggAAC+QkQUuTnx9EIIIAAAj4CuRTNpGAmj1M5BNauWS8zZ86XRYvrnKAiU0Ch7au//2GnmXYg0dCwT8aOmSq9e/fIGFRkO3c57p9rIoAAAgggECUBQooo9QZtQQABBCpI4JXnPxCd7qGbTtnQqRuZNgpmVlDnx+RWNGy4avDIrK1duKguFTxoGDF92i1y0UXVTrDx5MqnfY8fP2GEjB4zNO3nhBRZudkBAQQQQCDhAoQUCX8AuH0EEECgWAJhC2Da+3evrpKaER2L1TTOi4Aj4B4R4TX1w72PjrpYtuxBmVE7ITXVIwwnIUUYLfZFAAEEEEiiACFFEnude0YAAQRKIBA2pLDrV2hAoUEFGwLFFAg7ksJM6dA2aUixffubjWpT6M8yBRkmpBgyZGDaSIwnVtRLz15fjDbSdm3dus2pcWFGegwa3D8VjJjzd+16mgwfNt45Rkd7fPkrXeSKgcNkw4YX5bw+Z6emrxTTkHMjgAACCCBQaAFCikKLcj4EEEAAAUcgzMoeudSvgBmBfAXCjqTQ/VevfkaOOeZoGTb8KufyOvVj4OU1acU1MxXR1JBi8KAvppiYGhgaOowaOUnuvneecx4TnphpJiYc0evq9BHd//zqGieY0LoY5r9NkKHn1voYZv98nTgeAQQQQACBUgoQUpRSm2shgAACCRIIs7JH2FEXCWLkVosoEHYkxd13LZOvnvWv8sB/PeqEFLqyR5Cgw74FE1KMHj00NXLCXXTThCH2lBK7uOfLL21pVOhTgw/7nGY0hrsmRhE5OTUCCCCAAAIFESCkKAgjJ0EAAQQQsAXCjoywA40htZ3lxNMPAxSBogsECRi89rnzjiWpkMK9HKmGCatWrWlUMNPcjF9NCnv0hVfAoNeZPm2uzK67UTSksOtieAUfXkFH0UG5AAIIIIAAAgUQIKQoACKnQAABBBBIFwhTBDPsKiBYI1AsAa/Cme5r6T52SGFW+zBTPjRsOOecXqlREl7Hjxp5o4wbPzw1RcSMpOjX71LnOK+Qwq5z8dyzLxBSFOsh4LwIIIAAAmUXIKQoexfQAAQQQKDyBMJM3wizb+VJcUflEtAwYdrUOYEvb+o9NDQ0pIUUegIzCqJP9dmNfuYVUujUjOOP/1KqEKaGEkuXPpSqUWGmoZhimmakRP/+l6RqUDCSInDXsSMCCCCAQMwECCli1mE0F2wm7PkAACAASURBVAEEEIiDQJiimfZUj7F3dZNWbZrE4RZpYwUK5DKSwmZwTw3xIjLTPb773W87RTd1JY4uXU5NFc3UY8xICv13E6SYIpn6Z+7VQ5juUYEPI7eEAAIIJFiAkCLBnc+tI4AAAsUSCFo0k6kexeoBzpuLQJiQoseZZ8glfS/PeBl72dAw7aHoZRgt9kUAAQQQqDQBQopK61HuBwEEECizQJiimUz1KHNncflIChBSRLJbaBQCCCCAQIkECClKBM1lEEAAgaQIrFuxQ+rnbHZuV1fp0NU6/DameiTlqeA+wwgQUoTRYl8EEEAAgUoTIKSotB7lfhBAAIEyCwQdHcFUjzJ3FJdHAAEEEEAAAQQiKEBIEcFOoUkIIIBAnAXsopk1IzpK9+oqz9sJGmbE2YK2I4AAAggggAACCIQTIKQI58XeCCCAAAJZBOwpHDrVQ6d8eG1M9eBRQgABBBBAAAEEEHALEFLwTCCAAAIIFEwgaNHMoPsVrGGcKHEC+oyxhRdgCeDwZhyBAAIIIFBYAUKKwnpyNgQQQCDRAnadiUxFM5nqkejHJPTNa+Cw8519ov+7a8cX4cOWDbud/9U/141QIjSr5wGZpmgV5gqcBQEEEEAAgcwChBQ8IQgggAACBRMIGj4EnRJSsIZxolgJaNilIYQGErpaDFvpBAgpSmfNlRBAAAEEvAUIKXgyEEAAAQQKJhCkaCZTPQrGXTEn0mdi3codBQ0lmLaQ2+NRfVk732K3uZ2RoxBAAAEEEAgnQEgRzou9EUAAAQQyCNgjJGYt7+25Z9DRFkBXvoCOmFj/5LuBRkto6KBTiFpVNXFgOnRp6fxv6zaHOP9LKFH5zwt3iAACCCCQDAFCimT0M3eJAAIIFF0g6AiJGVeuT9UPyLT6R9EbnOUCmzZtkXvvqZdx46+Vpk2/eBE229o162XVqjUyeszQQM2cWTvf2S/o/oFOGuOdNKhyRk74FLfUwKF7ny+WrtUwwm+FmBgT0HQEEEAAAQQQ8BEgpODRQAABBBAoiECQoplBg4yCNKgAJ6m//2HZunWbXP3DATJ40Eh5cuXTvmcdP2GEE0LoMVcNHhno6uaYQDtXwE72KBr37ZhgQsMJRkVUQGdzCwgggAACCOQoQEiRIxyHIYAAAgikCwSZxmHvk2n1jyjZ3jp/sZx/wbnSqVOHVLMyjaTQkEK3mu9dLO79Ghr2yfRpt8jAy2vSzhel+y1GWzTAqp+zudHICRNMVA9oV4zLck4EEEAAAQQQiKEAIUUMO40mI4AAAlEUCFI0095HX0zj9HKaaYTEoMH9ZUbtBGdaiO732PIn5YEHHs3aTQsX1TlhRqVuOnJGwwkNKeyNcKJSe5z7QgABBBBAIH8BQor8DTkDAggggICIZCuaaU/1UDC/wppRwNQRD2PHTJXFi5aKCSB+/cjjTtPcIyR27twld96xRIYNvyoVUnjtp3+WlJEUZrUOHTlDOBGFJ5o2IIAAAgggEB8BQor49BUtRQABBCIrEKTWhD3VQ79JH3tXt8jej2mYXTxTQwq/WhPukRR2SHF+dU3afXbpcqrcfe+8ip3uYdcmsW88biNnIv9w0kAEEEAAAQQqVICQokI7lttCAAEESikQpNZEkJoVpWxzkGu5Qwo9pk/12U4RzZ49uzmFMjONpAhyjUrZx29qh9YeqRnRkWKYldLR3AcCCCCAAAJFFiCkKDIwp0cAAQSSIBAkgLCng+goijis4OBehlQDCRNQTJs6R7xGRehyo6eddoosXLjEdzWQShtN4bVqh/avhhMsH5qE3wDcIwIIIIAAAoUTIKQonCVnQgABBBIrYBfEHFLbudGLaZDpIFHEs0OK5559QXTqxhMr6p2mrlq1JrU0af/+lzi1Ktw1JzSwOOecXtKz1xdTW0yti969e1REwUy/0RNM7Yji00ybEEAAAQQQiIcAIUU8+olWIoAAApEWyFY0M8hIiyjeoC4humzZg9L34m/IL+YtkkWL66R161aNlhbVMKJ9+3bOVJApk2fLxEmjnP1005/p9m/fuVCuGDhMZtdNToUWUbznIG3KVBiT0RNBBNkHAQQQQAABBPwECCl4NhBAAAEE8hIIMkrCDjG8Rlrk1YAiHawBhSl6GXSpUF1+dOvWbU6tCrNpSKFTQ3Q7r8/ZqaCjSM0u+mm9pnboRRk9UXR6LoAAAggggEAiBAgpEtHN3CQCCCBQPIFsoySChBjFa13uZzZTNbqe0Tm1HGmms90w+qfy8cf75N9r+sriRfc5y5fqptNDzHQPU9PiyZVPOz8bP2FEWqCRe2uLf6RfOEFhzOLbcwUEEEAAAQSSJEBIkaTe5l4RQACBIgjY9Si8vk3PFmIUoUmcsoACfuEEhTELiMypEEAAAQQQQCAlQEjBw4AAAgggkJdAtqkcM65cLzqaQjemBORFXbKD/WpOaAM0nOjep8rpSzYEEEAAAQQQQKDQAoQUhRblfAgggECCBLJN5bB/riyzlvdOkE68btUEE1s27JZXnv+gUeMJJ+LVn7QWAQQQQACBuAoQUsS152g3AgggEAEBeyqA1ibQopj2lu3nEbiFRDdBwwgNJdat3JEa7eIGIZxI9CPCzSOAAAIIIFByAUKKkpNzQQQQQKByBLLVm8hWr6JyJKJ9JzpKYuc7+5xAYteOj51Awmu0hH0X3aurpMNpLUX/lw0BBBBAAAEEECiVACFFqaS5DgIIIFCBAna9CffSokz1KF6Hmxof5goaQOimIYTZzL9nCyPM/jpionWbQ6RDl5bUmyhe13FmBBBAAAEEEMgiQEjBI4IAAgggkJNAthDCHmWhL8Bj7+qW03VyPcjUWNDjzegB/Xd9oXe/5Od6jbgfZ6ZyaDCh03XYEEAAAQQQQACBcgsQUpS7B7g+AgggEFMB/YZep3Po5hVClHqqh6mv4Ff4MabMBWn2/gfsJ02aHuD0U9sTD5U2JzSTsy45tiDn5iQIIIAAAggggEAhBQgpCqnJuRBAAIEECWSqR5FtlEWhmDItlVmoa1TqeTSw0E2XE2UkRaX2MveFAAIIIIBA/AQIKeLXZ7QYAQQQiIRApnoUxZ7qESScMFMZFKtVVRNnFIFuWnfB/HskIAM0wmt6iqlDoYebnzvTWv5RGFP/PMzUFjXRKR8UywzQIeyCAAIIIIAAAkUTIKQoGi0nRgABBCpXINtIiWJN9dDr1s/Z7LkyBfUVvJ83E2A402E27g60socJLLqddxS1Kir3Y1yxd7Zz5y4ZNfJGGTd+uHTq1CHUfa5ds15WrVojo8cMlfr7H3aOrfnexZ7nmFk7X845p5f07JVeb8c+h/tA/dmyZQ/KjNoJ0rTpIc6PGxr2yfRpt8jAy2s82+t1nUzX0PsfPGikPLny6Yz3Pmhwf6cdus2bu1Cu/uEAefmlLc79Dxt+VapN77+3K2XidT/nV9f4XqdLl1Pl7nvnhe6HUJ3GzgggUHEChBQV16XcEAIIIFB8gUwjJbIFGLm2bt2KHU5A4d70hbr6snYslRkS1ixDqsGF2vptJvypHtAu5BWivbu+GI4dM1X69bu00UtmtFte+tbpS7Ju+uIeh03bO23qnKxNNS/pJixwhxuZwg792ZTJs2XipFHSunWrtGtlChDCBg56Yq9j/AKSrDct4oQvVw0eKU+sqE89+5s2bZF776mXr339q/I/v/uDcxoTmuj+xx3X1vNzkule9Ry3zl8s519wLiFFkI5hHwQQSAkQUvAwIIAAAgiEFshUj6LQUz38Rk/oS7PWU4jb1I3Q2CU6wEyh8Ss8WmlhRbFDiri92Gd6zAp9L4U+n912faFeuvQhWbS4rlF4kO2jpO1q375d2sgJPd/q1c+kjXzQ85gXff1392gBrxd3r9ENJiTRUQzuUGXhorpUO+xAIlMAY4cOfveqx69duz7NRwOKKwYOkw0bXkw7TO/rtgWzZPGi+2TxoqWpn53X5+zU8XqvjKTI9mTxcwQQCCtASBFWjP0RQAABBOSGC1enFIbUdk6bElDIqR72CiLmgvqyXDOiI9MQivgcZqr5USlhBSFFER+gLKcuVkhhplJcf8NQGXrN2IzTHdwv9Bo6bN26zXO0iLu9GjjceccSZ0qEGYXh96KvFBo49Kk+O23khTnHNy/8uvxn/SMybvy1qXOZaSY6esEOADTUaNGiuVx0UXWjUQ2ZRjtoG8zzfswxR/uOiDH30Pfib6T20T974vGn5JqhgzynpTCSonyfI66MQCULEFJUcu9ybwgggEARBOzpHO6lRws51cMroNDRE5U27aAIXVSwU2YLK+IcFpmXNn0he+Th36a+Kba/wVZI+xtz+xtk/Zn7xVRffLue0dmZRmJ/82xeiO1zua9jOs28aGu7Lul7ufPH7uu6v5W3z2VetvU4/Xbe/TJu7ru6+lxZuHCJ8yJvzq8v3uYbffc3+Xo+ne5hpkAMGTJQZs6cn3a8TntQk+uvmyI33TwxNcTfjEaYOOk6mTL5Zk8b+xv5fOsY2HUftm9/U6ZPmyuz625MjaxwT5XQ/37rrbcbjZawP0j2CASt27Dg9nvkgQcedXbR8GDQ4Mvk90+vdV7mvepaeIUUc+oWyIcffuQcY9fOcNfCcI+k8KqDkS2kyFZfw/iPnzDCeQbMM/HwQ4/Lli2vOiGKbnbtikwjKNy/hPLt04L9UuNECCAQCwFCilh0E41EAAEEoiNgT+fQ1SB0JIXZCjXVw11/gtET5e1/E1asW7kjtZKIaVH36iqnJkjcpt2Yl/Vn/vhsqrCfCR1m1012vql2Tx2wh/7r/S9b+pD063+J8w24e1/3t+/6Eqgv9WYawu9+9wc544zOnvUM9OVPXxZNDQj7JbqhocEpiti//yXOdAATWIwePTTVZne9AfvpMff92mtvOG1p2rRpKlQxgYa2ddTISSkX+17M9fSc9vHmG/pMIYUpFullY1/PbRX26XePinAXq7Rf+vVnCxbc61zigf/6je+ltD80HHC7mMDAHnEQNKQwozH0xd8OHrxCCm2YBinZRlK8/vp2p95E0E3DgxEjh8iSJf/t9KcpnPlv37nQmQKiYVnz5s2cuhK6ad0Kr1EfprioVwDkFaoEbR/7IYBAMgUIKZLZ79w1AgggkLNApukc9rKkuY56cI+gcI/WyLnhHJi3gN/IijhOATEv671790irQWBeoHWlAw0DzMu/4umLqPtbeYPq/lm2F3G/zvB6Qbdf/P/8pw2NaiTYtRT8aiiY63ndt/sYd8FIr5DCdnGPXPAbSeEVUni1J9fVOeyRKkEedq9v971GHPhNBbFfyIOEFO4VN+zVNXT0jXkW7TaYezKhVa41KbKNpFAvr5VH9M/NKA0NQHSzVzsJYh6kVkaQ/mIfBBBIjgAhRXL6mjtFAAEE8hbINJ0j0zSQoBd2BxTukRpBz8N+xRXIFFb8qPa0WIyq8KtJYV5ITUjhXsbRvNi2bXtso2kd9kuvV90F+4XO78XN60XRfmnXkMLrm3LzEpuptoI+FV737RVS2AGNO6RwL+9ZiJDCnh5jnt5cXm7dy3m6w6Nclvv0GplhT3XQftfRBbqMqLv4pN5LppoUpq6F3S7tY61HoZsGA1orw4xG8FvVI5/pHn7FL80zpYa6SoduYaam6P75rEJS3N9inB0BBKIsQEgR5d6hbQgggEDEBOwQwT3CIdOKH0Fug4AiiFK09tGw4vYxG9OmgMRlVIVfSGFGJWgNAfdIClvf/WLvnuaQqTikezqFfV6vkMJ+0V654mnP1SbMOeIaUrhHtOT6pHstDWqb6nk1TDDLa9rX8VtW1G8UQtiRFPaSpV7FN+0+tJf8LEVNCvdz4zVtQ9vnXoY2U/0MQopcn2KOQwABQgqeAQQQQACBwAKZgohMK35ku4B7hAZTPLKJRefnmUZVRLmwprs2gxZ99KrFYBdUtIf0u0MKfanTApx33zvPKYLoDike/c1KOenkDs7PMk1nMN9qm8KV7lUZ3HUz9EnQb7m1ZoCeu9whhV/NjOOP/1KqMKXbxl3PI9MLfLYnP9MqG+5j7bof5oXa60Xcnk5jn8NvlIDfEqRBQ4pMdR2KMZJCnzF1+8uLm1KjdOzCqeaZdE+PyTT1xG3tVyg2W3/ycwQQSKYAIUUy+527RgABBHIS8Asi7EKXuQQMdi2LXI7P6WY4qKACGlbUz9ksOiLG3qJaWNNrlQttt3uKgf0iZmoIaKFMc7yZpjB33jR5+OHfpla1sF+W9ZwaUNg1CbKt7tG162kyfNh4h9L9Mu21qogW+tSt3CGF2tjTB3SViD59znJegk1NCreNKVJqprG4VzMp5IPqN93DLk5qlhXV67oLk7pDih5nniFafFWnB2nQpZtfSOFXk8K+ntcIH/dICrMCi9sl0/SYbDUp7EKyV139fefZ0/PpdJO5t9zphG/vv7crrXCoV78wvaOQTyvnQiC5AoQUye177hwBBBAIJZCp5oS+nGpQoVvYgpl2IU49XlcL0VoUbPEUsEfbmDuIyxSQKIj7FS+MQtvi2gZ3oGSHPiaEMKul6D26QyA7nDIGXqvDmJ+FHUmhy6TqShqmnoW5nvlzPa89QifoEqTusMisLOPuR7OfV0DnXprVTD0666x/lWuH/yzwI8ESpIGp2BEBBESEkILHAAEEEEAgkIDfVA/3VI2xd3ULXDjRDjcIKAJ1Qyx2qqRVQEoNTkhRanGuhwACCCAQNQFCiqj1CO1BAAEEIipgT/Wwgwg7vAgzVcNdKDPsCIyIMtEsS8BvCggjK/wfE0IKPkIIIIAAAkkXIKRI+hPA/SOAAAIBBDKt6mGHF0GDBlbyCIBeIbuYURXrVu5IWwVEb4+wokI6mdtAAAEEEECggAKEFAXE5FQIIIBApQr4TfXIFF5ksrDrUGj9Ca1DwVbZAn5TQExY0brNIdLtvKOceiQaXrAhgAACCCCAQDIFCCmS2e/cNQIIIBBYIFPNiVwKZlIoMzB9Re6YKawwN6whhYYVHU5r6QQWFFKtyEeBm0IAAQQQQMBTgJCCBwMBBBBAIKOAX80Jd3gxa3nvrJLuaR6s5JGVrGJ30OdHn4f1T77baNlS901rUKEjLfR/NbjQzf6zikXixhBAAAEEEEigACFFAjudW0YAAQTCCMy4cn2qloBdc8IOL7pXV0nNiI4ZT+sONZjmEaYXKnvfMIFFNgmmimQT4ucIRF+g+rJ2ov+/woYAAskUIKRIZr9z1wgggEAgAb/REu4/DzIiwp7mEWYVkEANZaeKETCBxZaNu51wTEdbsCGAQLIENPQmpEhWn3O3CNgChBQ8DwgggECRBGbWzpf27dtJzfcuLtIVin9av4KZYZcdpQ5F8fuqkq9ghxUaXuimf7bznX2NVgypZAfuDYGkCBBSJKWnuU8EvAUIKXgyEEAgUQIaHJxzTi/p2aubc9/639OmzslosHBRnRM0bNq0Ra4YOEw2bHgxbf8nVtSnzmf/IFtIoeebPm2uzK67UVq3bhW5fvArmOn+82x/maQOReS6tqIbpM8nGwIIxFuAaVvx7j9aj0C+AoQU+QpyPAIIxEpg585dMnjQSOnf/xIneHAHCZn+2x0qmHONHj00VEhhjnty5dNyXp+zZdHiukiGFH6jJcKMoqAORaw+HjQWAQQQQAABBBAouwAhRdm7gAYggECpBTQkmDJ5tkycNEruvGNJqJEU9sgHEzb07XuBLLzzV41GWNj3NWhwf5lRO0Gee/YFmTlzvhNMrFzxtCxd+lBkQwq7YKYZLeEOHexCml79SB2KUj/dXA8BBBBAAAEEEIi3ACFFvPuP1iOAQJ4C5RhJYZpcf//DkQ0p7CkadpHLMKMoqEOR58PJ4QgggAACCCCAQAIFCCkS2OncMgJJFbDrT5g6EmFDCr+aFK+/vl22bt0mo8cMTfFmq0kR5ZDCa9nRMLUo7DBDQYKs/pHU55L7RgABBBBAAAEEEPinACEFTwMCCCRKwF1HImzhTK/pHlqT4ogjW8n1102Rm26eKJ06dXBM4xpS+I2isEdGnHj6YU7w4LW5C2VmmxKSqAeQm0UAAQQQQAABBBDIKEBIwQOCAAKJEvAKKexlQvMpnJltVIYbOqojKbxGUbhHRoy9q5t4VV93BxSZwoxEPXjcLAIIIIAAAggggEAgAUKKQEzshAAClSKQ64ocev/ZVvdw/zyOIym8ak4ELZbp3s+uZVEpzw/3gQACCCCAAAIIIFBcAUKK4vpydgQQiJiAHVJo086vrgnUwoWL6uTLX+kiftM9evbqJg0N+2T6tFtk4OU1zpSPOIYU9igKU0ciyAodGlDUz9ksOpLCbNShCPRosRMCCCCAAAIIIICAJUBIweOAAAKJErBDipNO7iBNmzaVpk0PcQwe/c1KufPOX0mrw1vKNy88T2q+d3GaTbaRFG7IuIUU9igKM00jSAFMAopEfYS4WQQQQAABBBBAoKgChBRZePft2ycTJ0+Xbdu2yy/n10mrww/PeMSuv/5VfjJ0pLRr11amTBonhxzyxctPIbbHn3hSHnjwEZkw9no57ri2hTgl50AgcQImpOjb9wJ5+OHfOoUu27Y9VsaOmSq9e/dwVujQGhW6rV79jMyonZAKMTSk8FvdQ0dSxDmkcE/V0JoTuunICrP5FcBkqdHEfYy4YQQQQAABBBBAoGgChBQxCin++6Ffy223L5QFv5wrHTqcEOqh+PTTT+WjPXtSx3z26Wfy6muvy2effSaffPqpvPTSJvnkk0/kjTffkq1bX3P23br1VRk29Efyw6uukP322y/w9TRMueueJYH3b9myBcFLYC12zFfAhBRPrnxaHnrkHnnk4d/KM398Vu6+d16jKRpr16x3poOc1+dsWbS4Tt5/f1fG6R5223Tqhwk+3CMyzH5RKpxpBw0aRnTvUyW3j9koGl7o5lUAkxEU+T6NHI8AAggggAACCCDgFiCk8HgmNm1+Rd57733nJ/oCf/c9S2THjnfl2mE/kebND834FH300R65Zd4vparqKLni8gFy8EEHOfu3bNFCTjnlJHnttW0y5CfD5c233vY8z7HHHO2EEH/7/G/y179+IKeecnLqml4hxc5du5yA4eSTO0nrVq3SzvnIbx6TseNvzOmpP/DAA6VD++OlU6eO8rNx10uLFi2c82QLIK68fIDs2btXJv+81jm+SZMvRpJoGLJl61bnPMccfXSqTbt27ZLPP/88p+AlpxvjoMQLaPAwc+Z8J3S4844l8tZbb6eNlnBP0TBhg8LZoyq8IN0jLUy40bp1+mczap3gVSwzWx0KAoqo9SLtQQABBBBAAAEEKkOAkMKjH+vm3iqLFt9b0B6+6MILnOkfuz/8UB5+ZLl8/PHHTgjxyG+WS+9e/yodT+zgXK9JkyZycd8L5Vf31ctjjz2R9vLuFVI8s+5PcsXgH8vdi26THt2/ktbmOxbeLXN/cZtccvG35Jij26R+duCBB0jHjifKoc2aOX/WrFkzadf2S7Lf/vvJgQccIM2bN/cdOWGHFGa0Rfv2J0jzQ78Ib0xI4R7xYabB9OjRTUYOvybVlnxGhxS0gzgZAv8QyFZHotKg3NM8tNjlyvu2ZyyA6V5mVE1qRnSU7tVVlcbD/SCAAAIIIIAAAgiUWICQIgt4MWtSaMAwbMQNThBxepfOaS3RoCSfkOJvf/ubzLzpFnns8RVyx21znREZhd78AhKv4IGQotD6nA+B/AU0oLCndOg0jy0bdmcMKNyFNLUVrOKRf19wBgQQQAABBBBAAIEvBAgpAoYUL7zwYqjpHp07n5q1cKaOdFj19B/kF3NvajRVI9+QwoQrL/7lJblt/hxp+6VjG92pGTHiNQojyAeEkCKIEvsgEF0Be0qH1pzQzW8JUa/pHa3aNHFGUJhjo3untAwBBBBAAAEEEEAgLgKEFAFDikeXPx6qT830Dr/VPfbs2Stjxk9y6jOMvv5aOeCAA9LOn29IYUYu6HlvnTdbDjusZUlDCmpShHpc2BmBkgvYAcVhRx4sRx7b1DOg0HBi3codoiMo7E0DCrMCSMkbzwURQAABBBBAAAEEKlaAkCJgSPHqq6/JrNqfe77s26f44IPdcsOYn8kJJxyfcSTFyy9vdgpo3jhpnJxz1v/xDBDyme6hK3f86JoRzjQSv6VQizmSonZWnfT91oVy+OFffDurIzs06Dn22GOlV88eqft98S8vy8svb6JwZsX+iuHGoihgBxSHtjxQ9uz+LK2ZZvqG19QODSd05Q+dGsKGAAIIIIAAAggggEChBQgpyhRS/MeSZVL/Xw/K7JnT5KiqI1Ot0AKUBx10kGiAoC/1s2dNk+OP/+JlYPljT8jiu3+V9mfPPbdBrhl2XaPCmc9veEGuGjJUar57qYwa8VPPQpjFDCkonFnojyrnQyB/AfeUjYMO3l8+/eTz1Ik1gPjmFcfLu9sbGo2c0J20MKZO72BDAAEEEEAAAQQQQKBYAoQUAUOKQk730NEWI64bK//7x3WNrm7qQ4RdYcRdV2LV7/+v/GToSBlzwwj5wYB+nneZS0hhljzVE27a9IrMvPkWGX3dtdKp04nONXQp1KdW/UEIKYr1keW8COQm4LUih30mDSh00yDDvVF7IjdzjkIAAQQQQAABBBAIL0BIETCkKOR0D13G84axE+XII49IjYpwj4hY+bun5C9/eTmtdTo14pl169OmUbz19jvy0MO/aTSSQlfY+NmkqXLuOWfJqaec5HmXa9Y+I88+93yjJUq9dtZlUr/y5a5iimX6sWlYsm37GxUXUpj5+K2qvniRC7OZlz/3Ma3bHJL2R377hbkW+yLgFli3Yoesf/LdtHoT9j7u0RT2z5jawfOEAAIIIIAAAgggUGoBQoqAIcW2bdvll/PrpNXhh2c8whSsbNeurWctCB1Fcd3oCbJ6zf/KscccnarF4LdShn0xr6U9t776mjMtRAt1tj/h+NTuYUdiZHvwI5oQBwAAIABJREFUfj55gvzbJd+WTz/9VD7as8fZ3QQrt867Wbp27eL8mU5X+fWjv3UCkqCb7RD0mFLvd8OFq0t9Sed6QQMOv33doUq2kCVTUOIOVTKBELiU5XFxLqojIf742Duy58PP5NlV78q+vX8L1RgTTGjdCfoxFB07I4AAAggggAACCBRAgJDChZhtpEA+5vqif2izZjLuZ1PklJNPkh07duQdUvi1R1cP+eTTTzI29/YFi+VX990vdsjgd0DTQw4R90olmZYgrbTCmeUKKfJ53jgWgTACuoxot/OOcupOsCGAAAIIIIAAAgggUC4BQgqXvF1zwfzo73/XopWPy4MP/0YG9K+Rr517VqP++vzzz+WBBx8Rncox5OorpUf3rzTa55hjjpaHH3lUtmx9Tbp95Qz5j18t9QwpTurUUX4+bZaceurJMvjKH6TO4zWSQkdm6L5afPPan/5EmjQ5uNF1//73v8vu3R9Ky5Yt0gpoetWk0PvYseNdadOmyrPYpn1yv5Bi+xtvyltvvS2nnnKyNG9+qHOIGWHSo0c3GTn8mtRpvPYt14ch03XNdI9dOxrP18/WXq85/nrMznf2pR3qt1+28/NzBMIK7H/AfnLgwfs5y46e9OXD5eTuh4uGFGwIIJBdYGbtfJk2dU7WHcdPGCGjxwzNuh87IIAAAggggEC6ACFFlifib3/7m7MKR+2sOTLw+/3kmp/8UA5p0kQ+/vgTueUXv3SONuHA3r175efTb5KnVv1exo+5Ti785vmy//77p11B99m7t0Ge/sPqtLoN9gt/x44dnKKX7hd6r5Ai2/QSvfja/31GRo+bJJf/4DL5wYDvOauH6OYOKXQqx+133CX/sWSpjB97vfT91jczBhVBpqiYm/cLKfhAZhbIN+BwhyrZQpZMQYk7VMnUcgKX+D3ZOrXDjKYgsIhf/9Hiwgjs3LlLpkyeLRMnjZLWrVsV5qScJRICGi6tXbteFi2ua9S3a9esl5kz5zf6mf75+dU18sSKeunZq1sk7oNGIIAAAkkQIKTI0MsffbRH5v7iNrlv2X/KoCu+nwoo9JB9+/bJxMnTnaOnTBqXmgqhx0ydPksee3yl/Pt3L5Ef/3CwHHFE60ZXcQcOxQopNr+yRYaPGC06QmTOzTOk57/2SLXFaySFvf/NM6eKFszcb7/9PJW8QopPPvlENr7wonz8cfqIA3W5Zd4vndEh37m0b6PzaRHRTh2/WCGEDQEEwgm8+sKHzgF/fe9jefOVPfLWq3tk28sfyd7dn4U70T/2JrDIiY2DYiZgXkCDNpsX1aBS0dtv06YtcsXAYVLV5ijPkEIDDN3skS8NDftk7JipsnjRUkKK6HUpLUIAgQoXIKTw6GCdHvHC/3tRpk6/WV78y0vOqhandzlNDjrowNTen332mfzPU793/lunfxx44D9/tmfvXnnqqd/Lm2+9LYcffpj8eMhgp7Bli+bNU8eXIqR499335PoxP3NW5NA26D8HHHBAqg1+S5DqyAtdIlU3d7Bhc3mFFGbExPMbXgj10Rk8aGDaNJBQB7MzAgh4CuiIlnUrd4iZrmTv1KzlgdLx9MNlz+5PfVf+0P1Z4YOHK0kCjKSozN42IYTXSArt81Ejb5Rx44dLp04dUgAaYi1b9qC89tobMnr0UEZSVOajwV0hgEBEBQgpXB2zXZfPvGOx/ObR3zoBw+SJY2Xnrr+GWq1CTzl50jhpU3WUTK+dLa9v2+7Ugxg7epQzhUI3DSnmzL1VRgy/Ro45uo1s2vSKzLz5Fmcp0UJM9zBTTx759XLp++0L5WfjrpdmzZql3a1fSKEhjS5reuPPa6Xtl46VuXNmSscT//l/3OYkJqSYN2eWNG3a1Knb0avnmfLV/9NLPv/752nX0toZN4z5mXz5jK7yoyGDGn0cDj7oYDn00PT2RfQzQ7MQiJ2AX1ihAcSPak9z7ueV5z+QLRt3iy5Z6rXpvtWXtaOwZux6nwb7CdjflGdTGjS4v0ycdJ1MmXyz88160E2Pm1E7QZo2TV9yOujx7Je/gAkb+l78DfnFvEWeUzo0jLD7yQQXQ4YMdKaBEFLk3w+cAQEEEAgjQEjh0jLTHU4+uZOMuWGEVB11lKen33QP984NDQ3yH0vul9df3ybjxoxKBQUaUngt01mIkELraNy2YJHzjxbwvKn253LUUUc2ug+/kEJ3zHQOvfeXN73ihBJ6b/Y2asRPnakx7o2aFGE+luyLQHEENKy4fcxGZ5lSs2n4UDOiY6pwpv4sU2Dh3r84LeWsCJRHINeRFPpN/Tnn9OLb9vJ0m+9V7VES77+3q1HdCRNU9e7dQ2q+d3HqPNqf7du3kz7VZ8vgQSMJKSLWrzQHAQQqX4CQwqOP9Vv/Fi2aNyp6ae8aNKTwe4Q0pLj1tjtl9qxpcvzx7eS55zbINcOuy3skhRbFNIU+M42C0NESs+f8wtl34YL5cnqXzo2a6h6NMX7MKFl013/IHQvvTu2rI0TO7N5Nvv3tbzrTYlodfrhnDQtCisr/ZcIdxkPAa1SF3yiJTNNFdKlSDTfYEIirQNBVOsz92at1aI2De++pl3Hjr3VGSZiQousZnWX6tFtk4OU1aVMH4moU93absEEDCK/imNqP06fNldl1N6aKaZqRFzqyQr9oIqSI+1NA+xFAII4ChBQevbZnz15nOdHdu3f79mmmmhTug1q2bOkUi7SnM7hrUmgNB50aoqMt2rX7krO6R5i6DlrzQgt4rln7R7l21NhG0zR0ZIQWr9x///3k0EMPlTfeeFPGTpgs77yzI7UMqtfNmroWf372eWfqS6vWrWTWTbc4NTb6nPc1ObHDCak6F17Lt5pzZiucqftRPDOOv0Joc1wFtE6FXasi0wiJTNNF7FEYcbWg3QiogAkeOnQ4QU49tVNqVIRXUcVb5y+W8y84NxVE2CMp3AEGuuURqL//YVm9+pnUNA6vkEL32bp1W6pgpvbd9ddNkZtunuj0rY7EIKQoT/9xVQQQSLYAIYVH/+tIip9PmyXb33izIE+Hjmj42fgb5LDDWqbOp+d+66235dRTTpbmzQ9Nu06QkMQcoCM6Hl3+uLNcqYYUOpLiwYd+LaeccpKc1vlf0q7346EjZMuWV9OupfUjbp41Na2op/umX9myVV588SX55jeqnVES5h/3fqZGRa5oFM/MVY7jEMhNwCuoGHuX/zJ7fqMwuvepkuoB7XJrBEchEAEB+4VWm2NWddB/d6/qoS+7q1atSVsJwj3dQ8+nmz2FIAK3mZgmZKs3snBRnedUDu23qwaP9HSivkhiHh9uFAEEIiBASBGBTsinCSZQOarqSLn2pz+RJk0O9jzdhx99JDNm1qVCigMPPMBZXlRHeLRpU5VPE1LHfvrpp/LRnj05n4vimTnTcSACOQtoocz6OZtTx594+mEypLbx9C/7AlqzQo+xa1toSEFQkXM3cGCZBMzSlF8/76tOC8z0Df13DR70ywR3QcUpk2fLxEmjUtMDzL52TQp9SWbaR5k61eey7pEU9rQOv8KmjKSIVh/SGgQQSI4AIUVy+po7RQABBDwF3CMqggQOGlBoUKGBhdmCBBx0AQJREbBDiO3b33RqTPx7TV/58ZAbpMeZZzjhhP75FQOHyYYNL4rWpNDNq0CmV+FMDUCeePwpuWZo4xWtomKQpHa4Qwq7XoWfAyFFkp4Q7hUBBKIkQEgRpd6gLQgggEAZBLwCBx1NoaFDps1v+ocua6o1LtgQiIuAvsCeX10jYYb0m2P0Hs/rc3ajpS3jcu9JbKe79kQSDbhnBBBAIMoChBRR7h3ahgACCJRIwL08qYYMmepT2M3yqm1BUFGijuMyCCAQWsBdVDP0CTgAAQQQQKCoAoQUReXl5AgggEB8BDSomHHl+lSDg0z7MDuHLcIZHxVaigACCCCAAAIIIFBKAUKKUmpzLQQQQCDiAnbYkGlZUq/bcBfhDDMaI+IsNA8BBBBAAAEEEECgRAKEFCWC5jIIIIBAHATc0z7CFsMkqIhDL9NGBBBAAAEEEEAgugKEFNHtG1qGAAIIlEVAV+xYMOaF1LWDFNG0G+qe+hE26CjLTXNRBBBAAAEEEEAAgUgIEFJEohtoBAIIIBAtAQ0pzPKiuUzbcAcV3aurpGZEx2jdJK1BAAEEEEAAAQQQiJwAIUXkuoQGIYAAAuUXcBfRDDuaQu/AHVSEKcRZfgFaEFUBfTZ10xBt144v/t1s9n+b/aJ6H6Zd725vkN07P/FtZuderaN+C4lt3wtrdvre+3eHnyhnXtAmsTbcOAIIIJCPACFFPnociwACCFSwQP2czaI1JnTLZTQFQUUFPxwluDUNGXa+s0+2bNjt/KP/HpfgoQQ8XCLiAoQUEe8gmocAApEWIKSIdPfQOAQQQKB8AoUYTaHn0LDDnjqi0z60TgUbAm4BfU40kNBROGwIxFmAkCLOvUfbEUCg3AKEFOXuAa6PAAIIRFjAHk2RawFM94ohOirjR7WnOaMz2BDQQEKnaZhRO9lEzHPTus0h0qFLy7TdW1X985mKy/P16gsfpu6h+eEHif7DFn+BAw/eX07udnj8b4Q7QAABBMogQEhRBnQuiQACCMRFoBCjKfRevYKKsXd1iwuDrF2zXlatWiOjxwx12tzQsE+mT7tFBl5eI506dUi7j507d8mUybNl4qRR0rp1q9TPZtbOl3PO6SU9e8XnvovVQfo8rFu5I+OICRMydO9T5TRDAwlG4BSrRzgvAggggAAC0REgpIhOX9ASBBBAIJIChRhNYYKKGVeuT91jriMzSoGkIcTYMVNl8aKlgS83fsIIJ8TwCin8govAJ6+QHbOFExpMaChBIFEhHc5tIIAAAgggkIMAIUUOaByCAAIIJEnAHk2R71QNHdKvoYfZ4rI0aa4jKfQ+Bw8aKU+ufLrRI3Nen7Nl0eK6tNEWlfpcZQonTDCh4URcpmhUaj9xXwgggAACCERBgJAiCr1AGxBAAIGICywY80Kq+GW+S4lW8tKkOqVj2tQ5qd6cUTteNm3a0mjqh47UmDd3oVz9wwEVH1K4+9vgaCBRfVk70aCKDQEEEEAAAQQQMAKEFDwLCCCAAAJZBXTVBQ0qdMt1OVL7IvaLq/kmXcOPKG0aLlwxcJhs2PBixmZ16XKq/P/27gZIq+rO8/hJjCNkfAkYQVKQKVF0LCBO0mSqoUqwFhrnZWeMm6kOSIoojcGtoUAaHZqXQaR4aaI0QrAqBhoNtQTszK7RbMzGBmu0UkJtIJkE3WyiwVHMGkmASHAgJrO79b/mPDl9+tzX5z73uS/fW0Uh8Nx7z/mc21bd33PO/zy2e1utNoW5tENOdNWnqEJIYdchIZzI09NNWxBAAAEEEMivACFFfseGliGAAAK5EUirgKbuUNG2Jg0KFR7evkvNvPmmQSGF9FWKalZtJoXf0g5mTuTmx5mGIIAAAgggkGsBQopcDw+NQwABBPIjYM5+SKPopWvHj/Yl1+RyB4eoIYVZcPOZ/j517XVjK1WTwpxxYz659S4Rys9PAS1BAAEEEEAAgUYLEFI0WpjrI4AAAiURsAtophEouIKKu7on5K6Aol9IYW9FKrMqWlpuUPv2PeHVoZCjCss97Jkx+pFPI8wqyY8P3UAAAQQQQACBiAKEFBGh+BgCCCCAgPLqUsi35XKk9e14EYKKoJDCLoBZtZoUrsKYsrQjjRCLnzkEEEAAAQQQqJ4AIUX1xpweI4AAAokFzC1E0/yW3K55kbeXXL+QQupNbFi/VW3uWVPbpaMqIYXf7Im0wqvEDyknIoAAAggggEChBQgpCj18NB4BBBDIViDtAppm610zKibNGOHN2Gj2YYYUJ0+eHrDrh9SeaJ3cUmuiHVJ0zOtUB/Y/P6gL02dMVb27egq3BamMU/9XjysJrMwjb8FSs58Z7o8AAggggAACyQQIKZK5cRYCCCBQWYFGLPnQmHkNKqJuGdr3+JNqfkenmtcxW23sXqXOnTtXmpoUfrt2yNgxe6Ky/zug4wgggAACCKQuQEiROikXRAABBMotYO7gIN+eL3/0D7MI0ui5HVTINdNcWpJGG6t0jaBwYlLbCK/2BAcCCCCAAAIIIJCWACFFWpJcBwEEEKiIQCOXfGhC15ICCUTysvyjCkMdFE6wtKMKTwB9RAABBBBAoDkChBTNceeuCCCAQKEFzCUf8k26fKOe9uH3kiwvyG23jWnIPdPuQ9Gup80P7z+h5L/tA/uijSjtRQABBBBAoHgChBTFGzNajAACCDRdoFG7fLg6JstL+ra8MuilmRfmdB4DHUwcO3qmtr0s4UQ6tlwFAQQQQAABBOILEFLEN+MMBBBAoPIC5pKPRtSlsIHDlh5IzYqW6Vd4tSs4/AXE8dRb55UEEnL07zkeyCUFMWWJjYwxBwIIIIAAAgggkIUAIUUWytwDAQQQKKGAueRjQff4TAKCoLBCiOVlevjIId7vYydc6rWpai/YOoiQ30+feG/JRtAsCfvRpPZHCX9Y6RICCCCAAAIFEiCkKNBg0VQEEEAgTwLyLbz+Jj7rXR6iLFHQVmZIoQOMPDmGteVfX/q1Ovurd72PXfTBC9QfX3qhOvfO77w/X3jh+73f3znzW/XOmff+Lu6hQwk5T2ZOcCCAAAIIIIAAAs0UIKRopj73RgABBAos0OitSKPShM2uiHqdKnzu4mEXqpFjPqjGTrzU6y5LOaow6vQRAQQQQACBYgkQUhRrvGgtAgggkBuBLLYijdtZaZOEJ8dePOMV2pT/5hgooGeWyFKYqi6J4ZlAAAEEEEAAgfwKEFLkd2xoGQIIIJB7AbMuhSwVyONyAXMrTSka6dpaM8/QP/ner9SZX76rfnP+39XwK4eoPxr63hKPs7/6rff7RUMuqC31SNo/CS4oPprnp4C25UXg3LnzannXOjVr1q2qdXJLXppFOxBAAIFSCRBSlGo46QwCCCCQrUCWW5Fm27Ni300HMTq0iDOzhMAi3tifOnVadczrVK2tLWpZ18JIJ8d50T108Ih67rmDtWvLuRvWP6Tmfq5djRs31vd+L798TG1Yv1Vt7lmjhg8fFqldrg/1Pf6k99ftn7ml9s9y7d1f6VMrVt6thg4dkvja+kSzj+K59v7NavV9Swe0226HnDOzrT3SvXf29gxov5xk9uEH//LSAOOwi8q99+17Qm3sXuXbf7n+vfesVQ88uHrAOG3q3u5d3n5WZFy3bd2p7vz8HK/fUcc5rK3NGtMk7eIcBBBAQAsQUvAsIIAAAggkFsh6K9LEDeXEmoC5+8eRA78IXBLDTh/BD44OG+RTr732M7Vs2cJI364HhRT633b17o381K5ctWTQS6+81L/66vHIwYncTF6gDx06onp39dQCAldI4fq7yI11fNAOYuw/yymukEKHN+YL/eWXDxsQcrjaavsHjYecP7+jM1L3dBjiN4Zbt61XO3f8F3X06I8GXO+Z/j7vuTGDpaFDh0YKoyI1zPpQFmOapF2cgwACCBBS8AwggAACCKQi0IytSFNpOBfxBKLU8SCsGPyw6BfRUaOu9IIAv2/OXY9ZI2ZSxHmZljbZwYa0//a5i9SIkVf4hhRB93DNVoj6IxZltkiaIYUrwJE2bNq0fUDfzfa7Zo/4zXbQ15dZEXpWiIQOepmIXNecHWPeR9rx+utvqL/525szCSkaNaZRx57PIYAAAi4BZlLwXCCAAAII1CXQt+UVJcs+5MhrXYq6Olixk4N2SyGseO9h8FviERRUmEsE5Br6hfXyDw9LZVmG+ZgmnUUh19AzKU6ePO2FFvpb/+kzpqoZM25UV1xx+aClE/rF2lwSEufHxjVzwv476dNHPzq6NlPF/HdzqYTc11wu4go3/JZqyGdfeOG7zmUcOliaMuWTtf67nOUZeObb/6z+fuE8j0D/uaXlBi980EZ2f2wvecaWdq5RK1YuDlzWE8dZB1FZjGmcdvFZBBBAwBYgpOCZQAABBBCoS8DcilSKLy7oHl/X9Tg5HwJ6hkX/V48PKjZa5bBCf/Osp+i7Xi5dNSpkKcW0aZO9l2x7JoVdp8B+mfR7IiZOvF49tnvbgJfYsHNd5+gA5W9v+Qv1xW29gTMppC12GNGIkMLus+nnhSlGrQ6zjkVQSCFjt3fv131nS8i58pmtD+3wXOUwg5qwn0zbNmhZjOt5iLrEZ17H7MB6GGHtNNvl18Z6xzSsDfw7AgggECRASMHzgQACCCBQlwB1Keriy/3JOqxw1a+QsKJ9yTXeziBVOFxFD/2+8TZfiGVWgllo0g4pgmZg2AUVTeeHt+9SM2++qRZShBXxdC1PMNt/8penBy15kH7IN+9vvPGmmjTphsxmUpj9dLXbDCmCCm/ql/CPf2KiN2PlsssuUUFhgAQA8zpuU/95wT+ozT33R6ox4nr2wwqX2qGLK+xyzaRwzTqJ+7OXxZjGbROfRwABBEwBQgqeBwQQQACBugWoS1E3YSEuIMt6XDMrJrWNUG23jVESWhThSFKc0u/b6yjT8u0XUldNCr8lGlFDCt2OqVMnq8WLVvoOg/1tv7TtqqvGeLMj7LoMegcN3fdvPPVt3yKSadakcL2w2zt+6Jf1//Tpvxq0i4b0af26Ld5lPv3pv1Z/+VfTnbM/7LoQfrt2mNfzgzX7b9YrEduwwpuuWTl+bdH9llk5UXc30W2W+8gh5zV6TIvw/wHaiAAC+RUgpMjv2NAyBBBAoDAC/XuOK/klB3UpCjNsiRrqV7OiqktAwkIKv4KLuiaFLP+QQ8+CsHcI8Qsp7NkFelaFzIbwK8pon2PXYDBDCpn9IbUVpAaFHBJiNGppQNjsAL9Cl1JbImxXFb82u/4+KKTQS3VcPzTm0ggzAHPtuqLPD5pJYYZYMpZy6C1Lg5aQhP1A6/oYWYxpWFv4dwQQQCBIgJCC5wMBBBBAoG4B6lLUTVi4CwSFFXd1TyjMrIp64cNCCntJhtzPb3cP18t4UEixbetOJTtIDB8+rNYNPfvBr196JsXo0R/xinf6LX3QMwOyqF9ghhS6poZeaqH/LP0x62+EBRu6/66Xer9dOfyuGWcmhVkoU4dFrvAjKKQICo92fHlPrbZJ0mc3izFN2jbOQwABBESAkILnAAEEEECgbgHqUtRNWNgLyNh/qevFAcU1qzSrIiykcA1snC1I/UIKv5oHQS/vfi/nuo2ubTiTvNDG6Z/c2w5W9PIHM7Cwd0GpJ6Tw28XDb8lNWP0IV5FJu332n/2uGVTcM2z8ov5PJMmYRr02n0MAAQTSECCkSEORayCAAAIIKOpSVPchCJpVUfbCmklCijjnmCGFvS2oXy2DqMs97Cc2SkjhV1/BrMkQVjTSvq+8sL/55s8H7Fghf/fUk/9jwOwJM1z4wb+8FLkmg9k2vxDAtcWobmecmRRm4OM3DvIZV0ghf6e3gDVnx+hrmruYuP496v+B7JAiyphGvTafQwABBNIQIKRIQ5FrIIAAAgh4NSmoS1HtB0HCir4tryhZ/mMeRSusGWcU4wQO5stu1G0kgwpnutrpmmGgt02Vz0e9r66RcWD/80qHIVFrUkSd5eBqf9gOJfrlXs4NCgH0tXWb/+Zvb/aWt4wadWWtvoPZR/n89BlTnduTpjGTQq5vzhgx72UW2tS1J8z2myFCPQVK6xnTOD8TfBYBBBCoV4CQol5BzkcAAQQQ8ASoS8GDoAXMwEr/XZWWgPAkIIAAAggggEByAUKK5HaciQACCCBgCFCXgsfBFGAXEJ4HBBBAAAEEEEgiQEiRRI1zEEAAAQScAhvvOFIroLige7y6+mOXIVVxAb8lIHpmxaQZIyqzE0jFHwW6jwACCCCAQCQBQopITHwIAQQQQCCKgFk8s23OGCW/OBAQgcP9J1T/V48P2AVE/l7CCgmzxk64VEntCg4EEEAAAQQQqLYAIUW1x5/eI4AAAqkKmLUI5MVTZlNwIKAFZFaF1C5xhRU6sBg+cohqmX5FLbxADwEEEEAAAQSqJUBIUa3xprcIIIBAQwWoS9FQ3tJcXIcVRw78YtBOIGYnZZaFhBbyu8y0MP9cGgw6ggACCCCAAAIDBAgpeCAQQAABBFITMEMKuSh1KVKjLe2FdIHNY0fPBAYWNoBfYDFsxEWltaJjCORdgBozeR8h2odAMQQIKYoxTrQSAQQQKIyAWZeCkKIww5aLhkadYZGLxtIIBBAYJNC+5Bpqy/BcIIBA3QKEFHUTcgEEEEAAAVPArEtB8UyejXoEdGhx+sRvlMy0kENqWnAggEA+BQgp8jkutAqBogkQUhRtxGgvAgggkHMBeYmU2RRyUDwz54NV0OZJeCHHqbfOD9otRAINDgQQaI7A2ImXsvV0c+i5KwKlEiCkKNVw0hkEEECg+QIUz2z+GNACBBBAAAEEEECgqAKEFEUdOdqNAAII5FiAuhQ5HhyahgACCCCAAAII5FiAkCLHg0PTEEAAgaIKmCEFdSmKOoq0GwEEEEAAAQQQyF6AkCJ7c+6IAAIIlF7ALJ5JXYrSDzcdRAABBBBAAAEEUhMgpEiNkgshgAACCGgB6lLwLCCAAAIIIIAAAggkESCkSKLGOQgggAACgQJmSCEfXP5oixo28iLUEEAAAQQQQAABBBAIFCCk4AFBAAEEEGiIAMUzG8LKRRFAAAEEEEAAgVILEFKUenjpHAIIINA8AbMuBcUzmzcO3BkBBBBAAAEEECiSACFFkUaLtiKAAAIFEvjpD99WMptCDopnFmjgaCoCCCCAAAIIINBEAUKKJuJzawQQQKDMAhTPLPPo0jcEEEAAAQQQQKAxAoQUjXHlqggggAACSqmNdxxRElbIsaB7vDejggMBBBBAAAEEEEAAAT8BQgqeDQQQQACBhglQPLNhtFwYAQQQQAABBBAopQAhRSmHlU4hgAAC+RCgeGY+xoFWIIAAAggggAACRREgpCjKSNFOBBBAoIACFM8s4KDRZASzjlveAAAgAElEQVQQQAABBBBAoIkChBRNxOfWCCCAQNkFKJ5Z9hGmfwgggAACCCCAQLoChBTpenI1BBBAAAFLgLoUPBIIIIAAAggggAACUQUIKaJK8TkEEEAAgUQCZkjRvuQaNaltRKLrcBICCCCAAAIIIIBA+QUIKco/xvQQAQQQaKoAxTObys/NEUAAAQQQQACBQgkQUhRquGgsAgggUDwBimcWb8xoMQIIIIAAAggg0CwBQopmyXNfBBBAoCICFM+syEDTTQQQQAABBBBAIAUBQooUELkEAggggECwAMUzeUIQQAABBBBAAAEEoggQUkRR4jMIIIAAAnUJUDyzLj5ORkAdOnhE7dv3hNrYvUoNHTokkkiScyJdmA8hgAACCCDQQAFCigbicmkEEEAAgfcEKJ7Jk4DAHwRefvmYun3uIrX47jtV+2duiURz7tx5tbxrnZo161bVOrkl1XM2dW/3rresa2HtutLGe+9Zqx54cLUaN25spPvxoeYKnDp1Wq29f7Nafd9SNXz4sFpj+h5/0vtv17Pm+jcJt15//Y3a5+XPzz13cMDz0YieSvs75nWq1taWyPeK83Nh90PO3bD+ITX3c+08440YUK6JQB0ChBR14HEqAggggEA0AYpnRnPiU+UX0C9i8+fPUf/0T99QK1YuHvSCpD9zYP/zoSDTZ0xVvbt6vM/JC16cc+RFVl7cZra1D7jPvI7Z6pJLLlZbH9ox6O/jzOQIbTwfiCxgj5MedzOMiBNSmIHAnM9+Wo0ePWpAWyS4uuqqMV5QkUVIocMGacRrr/1MLVu2MFIYFxRS6H/b1bs3svPKVUsiBySRL8oHEUAgtgAhRWwyTkAAAQQQiCtA8cy4Yny+jAL6pWnKlE96L38yW2HD+q1qc8+aAd98m32Xl8Vp0yYPeGELe2mMeo68qC7tXOMFJd//3lHvtvqlVJaWyDfyW3oe4ZvmHDyM5pj7hRFRQgodTkiXJNwyQw6zm/Ksbtu6U935+TnqJz8+1tCZFPrnYtSoK72AIM4sHmZS5ODhpAkINECAkKIBqFwSAQQQQGCwwMY7jigJK+RY0D1eXf2xy2BCoDICfks8wl7I5OV006bttRdKM1jwW4YR9ZyHt+9SM2++qTaTQ/5849RW9a2nn/VeTuUFVu6348t71KLF8yPXwqjMoGbYUVdIIeO/vGu9sxUyG0bPetFLOl599bg6dOhIYDjhupicL+eay4HS6rrfEo+gnwuz1oq0Qy+DuvzDw0JDv7TazXUQQKCxAoQUjfXl6ggggAACvxegeCaPQlUF5CVPlk48tnubc+27/aImMyHWr9sSmUumqMsR9xz90un3DbxcU14Wd3+lT61YeTchReQRSf+Dac2kCGuZa/lP0DnP9PdFWpbhF37M7+hUftfwCzDMmUL2TAq7vooOB48e/VFg1ydOvN735zPMjH9HAIH0BQgp0jfliggggAACDgGKZ/JYVFFAvzSFhQjyzfcNN0xQP/jBi7F28EjD1Kw/YF+PkCIN4fqv4apJIUVNt3+xt1Yo0w6b4oRdQS/prpkU9RaddBVr9ZslJPffu/fr3gyQkydPDwjN7JAiaAaGuYTFXuZizyqqf8S4AgII1CNASFGPHucigAACCEQWoHhmZCo+WHKBoJkLuutRvgG2iycmOUdefpd23qc299zvLSsJKrxpLiEo+RDlrnt+MynMehFRalLEDZ38aj7okEJqmPTu3KPiFKf0e46iLGWy66242ue3PIWQInePNQ1CwFeAkIKHAwEEEEAgEwGKZ2bCzE0KIBA1pAhaZuF64Qp7AbXP0d/OB32LHnbNAnCXoolByz30i/u1142NtAWpq7CqH5Ku/zCv4za1+h+/UNuSNsozHBc+LKRwPYuukEIvE7F3CPELKeqdFRK3n3weAQTCBQgpwo34BAIIIIBASgIUz0wJkssUSiDKDAfpkLk2P8o59c6k0IUyv9b3lLeDx+jRH6kVIWyd3OIZE1Lk41FLsyZFWBige2y/7Ju703z8ExNTr1US1i7Xkgy/mR5+S1T0jiXmco+gGRb5GH1agUD1BAgpqjfm9BgBBBBomoBZPJMdPpo2DNy4yQJRvoUOCwfSmEkhDPa3yPafw9rRZMrK3N5Vk8LeQjTKcg8NFrarjA4oZs/+lLctrX2EbYObZGDCQgrXNeNsQeoXRkTZCjhJfzgHAQSSCxBSJLfjTAQQQACBmAIUz4wJxsdLKRA1pLh97iIVtCtBvTMpXCGFDU5IkY9HMI2ZFDL7QZ6pxXff6QUPQdt/mp9zCehtTV0BRlKxJCFFnHPMkEIKcJo/X/XsUpK0v5yHAAL+AoQUPB0IIIAAApkJUDwzM2pulBOBuFs67uzt8V4gw8KBRs2k0MHF8q51tWKIuk05IaUZhoCeSaALV8p2tHprWf0xvcuHX8FK/YzKi7ocUkjV3i5XBxq6sKodkKUxKHECB3PnkqgFXVnWkcYocQ0EshEgpMjGmbsggAACCCilKJ7JY4AAAggggAACCCAQJEBIwfOBAAIIIJCpAMUzM+XmZggggAACCCCAQKEECCkKNVw0FgEEECi+AMUziz+G9AABBBBAAAEEEGiUACFFo2S5LgIIIICAU4DimTwYCCCAAAIIIIAAAn4ChBQ8GwgggAACmQpQPDNTbm6GAAIIIIAAAggUSoCQolDDRWMRQACB4gtQPLP4Y0gPEEAAAQQQQACBRgkQUjRKlusigAACCPgKUDyTh6PIAhK0yXHqrfPejjUcfxD42U/fqf3hyj/5oLr4QxfCg0BpBT7wR+9X17V8qLT9o2MINEuAkKJZ8twXAQQQqLCAWTyzfck1alLbiApr0PU8C0gIcXj/CXXs6BlCiTwPFG1DoAkCf7f4avXnN49swp25JQLlFiCkKPf40jsEEEAglwIUz8zlsNCo3wtI3RQJJeQ55UAAAQT8BAgpeDYQaIwAIUVjXLkqAggggECAgFk8c9jIi9TyR1vwQqDpAmZ4FtQYeWblGD5yiNL/3fTG56QBr/2vX6tf/Oxc5NaMnzw88mf5IAJZCLx08FTk2xBSRKbigwjEEiCkiMXFhxFAAAEE0hCgeGYailwjLQEJzfq2vOKsLyEhxKQZI9TYiZcSSqQFznUQQAABBBAIECCk4PFAAAEEEGiKgFmXYkH3eHX1xy5rSju4aXUFJCyTcEJCCvPQwYSEE8yUqO7zQc8RQAABBJojQEjRHHfuigACCFRewAwp2uaMUfKLA4GsBA73n/ACClc4wbOY1ShwHwQQQAABBAYLEFLwVCCAAAIINEXAXP8vsyhkNgUHAlkIuAIKgrIs5LkHAggggAAC4QKEFOFGfAIBBBBAoAECFM9sACqXDBWQ2RMSUuhDlnPINrgsNwql4wMIIIAAAghkIkBIkQkzN0EAAQQQsAXM4pnyb194egpICDRUwA4omMHTUG4ujgACCCCAQCIBQopEbJyEAAIIIJCGAMUz01DkGlEEzGdNPk9AEUWNzyCAAAIIIJC9ACFF9ubcEQEEEEDg9wJmXQpqAvBYNErAfM7kHpPaRnhLPDgQQAABBBBAIH8ChBT5GxNahAACCFRGwKxLwTfblRn2TDtqPmMEFJnSczMEEEAAAQQSCRBSJGLjJAQQQACBNATMuhRSwHD5oy1pXJZrIOAJ2AEFQRgPBgIIIIAAAvkXIKTI/xjRQgQQQKDUAhvvOKIkrJBDtiFll4VSD3emnTOfLUKwTOm5GQIIIIAAAokFCCkS03EiAggggEAaAhTPTEORa9gC9k4eBGA8IwgggAACCBRDgJCiGONEKxFAAIHSCphFDZmOX9phzrRj9jIPAopM+bkZAggggAACdQkQUtTFx8kIIIAAAvUKmC+UTMmvV5PzRcCcnUPwxTOBAAIIIIBAsQQIKYo1XrQWAQQQKJ2AWTxTOveFp6eUro90KDsBe7tRKcYq4RcHAggggAACCBRDgJCiGONEKxFAAIFSC1CXotTDm1nnWOaRGTU3QgABBBBAoGEChBQNo+XCCCCAAAJRBcxvv9vmjFHyiwOBuAIs84grxucRQAABBBDInwAhRf7GhBYhgAAClRMwvwGnhkDlhj+VDh/uP6FkRw99sMwjFVYuggACCCCAQOYChBSZk3NDBBBAAAFbwKxLQfFMno8kAhvvOKLkOZKD2ThJBDkHAQQQQACBfAgQUuRjHGgFAgggUHkB6lJU/hFIDGAXy6T4amJKTkQAAQQQQKDpAoQUTR8CGoAAAgggIAJmSME34TwTUQXs3WHal1yjJrWNiHo6n0MAAQQQQACBnAkQUuRsQGgOAgggUFUB6lJUdeTr67fUoZB6FHJQz6Q+S85GAAEEEEAgDwKEFHkYBdqAAAIIIODVE5C6AnJQl4IHIooAW44GKx06eETt2/eE2ti9Sg0dOiQKKZ9BAAEEEECg6QKEFE0fAhqAAAIIIKAFqEvBsxBHwHxeZImHLPUo47Gpe7uaNm2yuuHPxqsN6x9Scz/XrsaNGxva1XPnzqvlXevUrFm3qtbJLb6fl+vLsaxrYe0zL798TN17z1r1wIOrI90rtDF8oOECp06dVmvv36xW37dUDR8+rHa/vsef9P67/TO3DGqD698k3Hr99Tdqn5c/P/fcwQHPRyM6I+3vmNepWltbIt8r6jMu7bX7IecG/TzJz8VVV40Z4CY/F7u/0qdWrLy7IcGf3xg2wptrIpBnAUKKPI8ObUMAAQQqJkBdiooNeB3drcosCns2hN/sCP2Cd2D/86Gq02dMVb27erwXWbnezLb2AefM65itLrnkYrX1oR2D/p5ZGaG8DfmAPU7mGOobxgkpzEBgzmc/rUaPHjWg3eYLehYhhQ4bpBGvvfYztWzZwsBgTTc2KKTQ/7ard2/kMVm5aokXkPhZ6sAwKPSLfDOllH09132z8I/TZj6LQBYChBRZKHMPBBBAAIFIAlJbQGoMyEF9gUhklf1QkWZRyIvI+nVbQsdKvyCZL51LO9eoFSsX12Yz6BevKVM+6fxmXM51vUi5XnTkhUhf//vfO+rdVr5t10GIfCO/peeRyDM3QjvIBxILmOPn9wIdJaTQ4YQ0RAdVrkbJc7Zt60515+fnqJ/8+FhDZ1LoZ3rUqCu9gCDOLJ5GzKRwBXc7e3vUjLap3kwPMwicOPF69djubYlnG9k/z/YYSls2bdoeOFaJHypORCDHAoQUOR4cmoYAAghUTYC6FFUb8WT9NcMsucLyR1u8OiZlOoJevvSLpt+3zfaLjRlGmMtEHt6+S828+abaC5b8+caprepbTz/rvZzKTAs5d8eX96hFi+c3ZHp7mcaskX1xhRQylsu71jtvK7Nh9KwXvaTj1VePq0OHjsR+4ZXz5VxzOVBaffVb4hEUVJizibyf/98vabr8w8PUhvVb1eaeNQOWu8Rtqx3o6eUv+jp62UzYcpGo9zWvc/nlw2pLdk6ePN3QpSVR28fnEGiGACFFM9S5JwIIIICArwB1KXg4wgSKNIsirC+uf9cvbrNnf8p3toT9chd1toa+nzlrI2gdfKPX4CfxqeI5ac2kCLNzzSIIOueZ/r5IyzJc15DwY35Hp/K7hl+AYc4UssM8u76KPL+3z12kjh79UWDXzRkRrpDim9/s9843a1GkFVKYDaMmRdgTyr9XRYCQoiojTT8RQACBggiYW0q2zRmj5BcHAlqgCrMo5EXr7Nmz6tkD3wl8uZKXOylo+OabP69rBw9XgUDtTUiRj589V00KKWq6/Yu9tUKZ9gtunOAqaNmCayZFvS/ormKtfjN+5P57937dmwFizy6wQ4qgGRjmEhazsKiMsDmryG8mhSz3MAuT1msQNUDRT2A9gVA+nmJagUB0AUKK6FZ8EgEEEEAgAwGzICJ1KTIAL9gtZJtaWRYkRxVCLNeLkN9SkCgvPXbBRXkhW9p5n9rcc7+39j2o8Ka5hKBgj03hm+s3k8KsFxGlJkXc0MnvWdPPpSx96N25R8UpTun3HPmFFObg2fVWXO3zW54SJ6Swi8lKTQrpqxmCjB79EW93kLQNXDu0FP4BpgMIxBQgpIgJxscRQAABBBorQF2KxvoW+er2LIovPD2lyN2J1HbXi2dQSBG0PaL9kqa/nQ/6Fj3uS22kTvGh2AJByz30i/u1142NtAVpnB0qdP2HeR23qdX/+IXalrSNWJYQFlK4nkXXz4JfzRa/kMIOAv1mUuhaFLodSzoXePVadP2W2IPqOKERrmm0i2sgkLUAIUXW4twPAQQQQCBUgLoUoUSV/IA5i6J9yTVqUtuI0ju4duXwm2YedyaFLpT5tb6nvB085JthXYRQb7FISJGPRyzNmhRhYYDusf2yb+5E8fFPTEy9qGNYu+xCr9JOv8DOb4mK3rHEXO7hCu9kGZUuFKoLZ+qQQvsEzcyI8tTEWY4j12MmUxRVPlMWAUKKsowk/UAAAQRKJNC/57iSX3LIi6i8kHJUW8B8JmQnD9nRo+yH3zfCfi9zYYGC66XKDjzsP4dds+xjkJf+uWpS2FuIRlnuofsTts1nWPFWV3hWr1VYSOG6fpwtSP1CBbEwdwUJm0lhhjhpL81gJkW9TxHnl0WAkKIsI0k/EEAAgRIJmHUpqvJCWqLha0hX/uGvXqhdt0izKOJ+W6rXvge9JNpbjJovnmE7Gdg1KcKK/xFSNORxjn3RNGZSyOwHeT4W332nV0chaPtP83OuxuptTe3ZBbE7ZpyQJKSIc44ZUkgBTvNnxSxK6drhRP9cmv2zw416+t7I4CONdnENBLIWIKTIWpz7IYAAAgiECph1KeTDC7rHKymiyVFNAXPHlyoUU9XFLB/bvU2NGzfWG3S9XaN+AvxemuLUpJBrBRXm1MUQXfeq5pOYv17rmQR6rMytZXVrdVDmt1xAv5TLi7ocUkjVfPbk73SgoQur2mFXGjJxAgcz/Iu6DCLq8oygmRRRfg7rsWAmRT16nFsmAUKKMo0mfUEAAQRKJGDWpajCLg4lGrpUu0JglSonF0MAAQQQQCD3AoQUuR8iGogAAghUU4AlH9Ucd7vXZlhVhVkUjDoCCCCAAAJVFyCkqPoTQP8RQACBnArwDXpOBybDZplBldyWZT8Z4nMrBBBAAAEEmiRASNEkeG6LAAIIIBAuwJKPcKMyf8Icf3Z5KfNI0zcEEEAAAQT+IEBIwdOAAAIIIJBbgcP9J5QUTZSDqf65HaaGNMwce7mBbDkqO71wIIAAAggggEC5BQgpyj2+9A4BBBAotABLPgo9fHU13txyNI+FU+XZ5Bgs8PYv36395WUf/iOIEECgSQLvv+B9ip/BJuFz27oFCCnqJuQCCCCAAAKNFGDKfyN183ltc8tRmT0hsyiyOCR4kDoYp0+8F0DI7/J3p9467/3OgQACCBRF4O8WX63+/OaRRWku7URggAAhBQ8EAggggECuBdjlI9fDk3rjsiqWaQYSx46e8cIJDgQQQKAsAoQUZRnJavaDkKKa406vEUAAgcIIyMukfLOuXyLZ4aEwQ5eooY3cclSepcP7T6g0QgnqY7iH99/O/E795ty/Jxr7pCcxFknlOC9LgaxnYxFSZDm63CttAUKKtEW5HgIIIIBA6gL9e44r+SVHMwtoHjp4RO3b94Ta2L1KDR06JPV+Vv2C5jiLRVrFMuW6Ek6EvSTIy+7wkUPU2ImXekMxbMRFXrFO+TtehKv+dNJ/BBBAAIGsBAgpspLmPggggAACiQXMAprysti+5BovrMj6OHfuvFretU7NmnWrap3sXydhU/d2r2nLuhbWmvjyy8fUvfesVQ88uFqNGzc2VtNPnTqt1t6/Wa2+b6kaPnxY7VwJTZ577uCA+/Q9/qT37+2fuSXWPZr9YXuZh4yxbDua9NCzJnS45bqOPEuTZozwwoh67pW0jZyHAAIIIIAAAoMFCCl4KhBAAAEECiGQdQFNCQY65nWqA/ufD/WZPmOq6t3V4wUIEhzMbGsfcM68jtnqkksuVlsf2jHo72+99a/V3/zHz9b+3ryW/ku/kELCkAkT/lTt3LknsJ07e3tyH1qktcwjLJyQcEtmSsiOIRwIIIAAAgggkD8BQor8jQktQgABBBBwCDSzgKaEAdOmTR4we8I1i0HChKWda9SKlYvV97931OuFzGjQy0RkJsSWnkfU3M+112ZTmNfxCyNcf+/32SLOpDB38xCzpMs87OUi+jHSMyYIJvhfCwIIIIAAAvkXIKTI/xjRQgQQQACB3wuY37bLC2dWL50SJGzatL02W8IMI8ylGw9v36Vm3nxTLYCQP984tVV96+ln1Z2fn+PNtJBzd3x5j1q0eL5X18IVUsg1l3etd467zMqQmhjfeOrb6tVXj3tLPSSYmN/R6fz8ylVLBiwHydvDlMZuHnINCTrsmhOEE3kbbdqDAAIIIIBAuAAhRbgRn0AAAQQQyIlAlrMpZPbE+nVbIvfcDAP8ZjnIxaQ2xe6v9KkVK+/2DSns2hP29fRSlNbWllpIIde261C4ZntE7lAGH7QDirhFUSWU6P/qcXW4/8SA1hJOZDB43AIBBBBAAIEGCRBSNAiWyyKAAAIIpC9gb0ea5WyKOL2RgOOqq8Y460C4QgqzhoXUpJDimtu/2FsrlGmHFDJz4ltPH1B/ev21hZ1JIWP5pa4Xa7MfJFiQZR5RD7+lHXl9JqL2i88hgAACCCBQdQFCiqo/AfQfAQQQKJiAfGsuU/vlkBfbu7onNGx7SAkUbp+7SB09+iNfJbvQpcxeWNp5n9rcc7+3RCSo8KYs3ZDCmYcOHfHCBjOM+MmPj9V27rBDim/+9/1q6AeHqO/+z38p7EwKc+mO4C7oHh9pxxY7qNIDI7tzyI4gHAgggAACCCBQbAFCimKPH61HAAEEKidgv6Q28uXUnvVgY8uWpNu27qzVm9A7e0yceL16bPc251ajcZZ76IKd1143dtAWpOZSjqLVpEgaULhmTzRzS9rK/fDRYQQQQAABBDIQIKTIAJlbIIAAAgikK2DXppBv0KWeQdpH3JkUulDm1/qe8nbwGD36I2p51zo1a9attZ1B4oQUuj+uGhd2SCGfzXtNCtcsCBk7CZqCDr/CmCztSPuJ53oIIIAAAgg0X4CQovljQAsQQAABBBIImN/Gx61nEPV2cWdSyHVldsWG9Q/Vthm1/xylJkXvrh5vJ5A4IUXed/eQgGLjHUcG0IeFDEGFMRu5zCfq88HnEEAAAQQQQCB9AUKK9E25IgIIIIBABgL2S2/YC2+SJsWdSeEKKez7VnEmhb2Lh5gE1aCQsT28/4SS5R3mwa4dSZ5izkEAAQQQQKBYAoQUxRovWosAAgggYAjYRTTTXvaRxkwKHVzIso9dvXu91u/s7XHu/GEOrszAMM8xtziVz+nlHvLfYVulSoHOjd2rvC1Psz7MMZJ7B9WQ8Asn5LxG1h7J2oT7IYAAAggggIC/ACEFTwcCCCCAQKEFZKcPeRHWL8AsA8jHcLrqT/jtxhIUTlAYMx/jSSsQQAABBBDISoCQIitp7oMAAggg0BABecH9UteLSn4nqGgIcayL+tWRkMKmssTDPMLCibbbxoQW1YzVOD6MAAIIIIAAArkXIKTI/RDRQAQQQACBMAG7PoXfN/Zh1+HfkwtErSOhPyc1J3SwZN6VuhPJx4AzEUAAAQQQKIMAIUUZRpE+IIAAAgh4L7zm7hG87GbzUEhRzGNHzwwqcil3l2Kmk2aM8IpgymEXwiScyGaMuAsCCCCAAAJFEiCkKNJo0VYEEEAAgUABv20u5UVZQguO+gX0TIjTJ35TqwViX3XsxEvVv//2/6nX/vevQ2+ogwzGJ5SKDyCAAAIIIFAJAUKKSgwznUQAAQSqI2DXqNA9l90hxk641Asrho8cQmjh80j860vvBQu/+uVv1Jlfvqve/uW76t/e+a06e/q36tenf6v+z7F36nqY9AyXYSMuot5EXZKcjAACCCCAQDkFCCnKOa70CgEEEKi0QFBBxkrDNKHzeoaEzGZhRksTBoBbIoAAAgggUDABQoqCDRjNRQABBBCILiD1Eo4c+IXvsoToV+KTUQTef8H71B9fdqG6ZNiF6tqPf0hdN+lDSnb14EAAAQQQQAABBKIKEFJEleJzCCCAAAKFFTDrKMh/n3rrvHNnicJ2MOcNl9kUEla0TL+C0CLnY0XzEEAAAQQQaLYAIUWzR4D7I4AAAgggkBMBvSWohDhSf0LqUbwttSlOvuu18IffOVl3S3VgIfVBJLigYGbdpL4XOHTwiNq37wm1sXuVGjp0SONuxJURQAABBBBIUYCQIkVMLoUAAggggEDZBfSsFNl2VJbTuI4PXvoBNWLMB9UFF7zP9zNynhlYSGHTMh7nzp1Xy7vWqV29e0O7N33GVNW7q0cNHz5swGc3dW9X06ZNVjf82Xi1Yf1Dau7n2tW4cWNDr6fvPWvWrap1covv5+X6cizrWlj7zMsvH1P33rNWPfDg6kj3Cm0MH2i4wKlTp9Xa+zer1fctHfAM9T3+pHfv9s/cMqgNrn+TcOv119+ofV7+/NxzBwc8H43ojLS/Y16nam1tiXyvqM+4tNfuh5wb9PMkPxdXXTVmgJv8XOz+Sp9asfJugr9GPARcE4HfCxBS8CgggAACCCCAQCIBCSwkqDj24hln3Q8JIf7y9j9Rv3v3/3qf0Z933Uzv+iFbkpbpsF+EzBcl8wXR7wXTng3hNztCv+Ad2P98KJ8Zhsj1Zra1DzhnXsdsdcklF6utD+0Y9PfMygjlbcgH7HFyBVpxQgozEJjz2U+r0aNHDWi3+YKeRUihwwZpxGuv/UwtW7YwMFjTjQ0KKeIEhPp6K1ct8QISP0sdGAaFfmFBhnhu2rR9UCCpx/iZ/r5IfW/Ig8ZFEciJACFFTgaCZiCAAAIIIFBkgaAdVWSWRPuSa7zu6aBCCpq6ZmKULayoJ6SQF6WlnWvUipWLa7MZ9IvXlCmfdH4zLsauF4yB8bUAABYxSURBVCnXi6Z5/e9/76g3PvJtuw5C5Bv5LT2PRJ65UeTnN+9tN8fP7wU6Skihwwnpr2vWjvnyv23rTnXn5+eon/z4WENnUuhnetSoK72AIM4snkbMpHAFdzt7e9SMtqneTA8zCJw48Xr12O5ttZ9PCR7nd3QqCfr8Aj3XzCUzUCGkyPtPI+3LQoCQIgtl7oEAAggggEBFBCSE6P/q8UEzKyR8uKt7woAaFEHBRlnCCldIoafSB82kCHr50i+aft8229/UusIOeRwf3r5Lzbz5ptoLlvz5xqmt6ltPP+u9nMqyEzl3x5f3qEWL5zO9vYk/w66QQpb8LO9a72yV+ZKsn7NXXz2uDh06EhhOuC4m58u55nKgtCj8lngEBRXmbCJphyynkiVNl394mNqwfqva3LNm0JKpOO21Az29/EVfQy+bsX+2dfggS7P8asH4/SzqPsWZRRKnT3wWgaIJEFIUbcRoLwIIIIAAAgUQkACib8srA2ZLuIIK6YoOKw7vPzFo1xU5R2ZhFHUrU/tFxgwm/EIKMZFvbGfP/pTvbAn75U5ekNav2xL5ydDT2uUEv2/g5d/Cpq5HviEfrEsgrZkUYY1wzSIIOqeeb/31rAO/a/gFGOZMITvMs2cpyPN7+9xF6ujRHwV23ZwR4QopvvnNfu98sxaFX02LoIK1rn/TwcWCBXO9ZSBRl7qEjSX/jkCRBQgpijx6tB0BBBBAAIGcC/TvOa7klz6CZkjopSAyE0PvNKLPk5BCwoqi7QZivsiMHv2RAYX6/EIKmblw9uxZ9eyB7wS+XMnLnRQ0fPPNn9e1g4erQKB2J6TIxw+YqyaFFDXd/sXeWqFMO2yKE1zZyxbMXrtmUoQVnQxTcy158JtlIPffu/fr3gyQkydPDyhcaYcUQTMw5LN6CYtdnNacVeQ3k0KWe5iFSeOGFH5LtfTPn15OQkgR9vTw71UQIKSowijTRwQQQAABBJooILUnHul6KVJQIR/yWwZSxCUg5ovMf/uvT3sGetq8+S3vf5h+oxo27LJBU9VdL0J+S0GifGtsF1yUF7KlnfepzT33e9/iBhXeDFpn38THqxK39ptJYdaLiFKTIm7o5Pes6edSlj707twTafcaPVB+z5FfSGEOsF1vxdU+v+UpcUIKu5is1KSQvpohiB066nb6zaSQc+3lKOZnz507582gIqSoxI80nQwRIKTgEUEAAQQQQACBhgtI8PClrhcHzJCQnTyCdvMICiuKsgREv8wJ8K9/fdZ3xkOcYohBIUXQ9oj2S5r+dj7oW/S4L7UNf5AqeoOg5R76xf3a68ZG2oI0yg4V9gv3vI7b1Op//EJtS9qgJUJJhygspHA9i66fBb+aLX4hRVBxW+mLrkmha1HodizpXODVa9H1W8JCCjs8sWd9hNWaSerKeQgUUYCQooijRpsRQAABBBAooICrTkVYUCHddAUc8vdRzm02U9Rp8UFbkMqSDrNood81486k0IUyv9b3lLeDh3wzrIsQ6i0WCSma/QS9d/80a1KEhQG6x/ZLs7lc4eOfmDhg2UUaSmHtsgu9yj39Aju/JSqu5R6u8M78mbNDCt1Xv9DDr+6EPUtC1+Rw2TFrKY0nimsUWYCQosijR9sRQAABBBAomIBrdoTMipBtSoOOoi4BqSek8Ptm1e9lLixQcL1U2e2z/xx2zYI9foVtrqsmhb2FaJTlHhogbJtP/ez5FW91bWlbL25YSOG6vl9I4fdZV0hhL8Pwq0mhZ1KYIY5Zo0L/vSukCCqm6RcK1evJ+QgUWYCQosijR9sRQAABBBAooIA9oyLODh5+YUVeC2vql6hdvXtDR8qsFxH0kmhvMWq+eIbtZGDXpAgLUQgpQoctkw+kMZNCZj/I87H47ju9+gpB23+an3N10Cz6mhZAkpAizjlmSCcFOM2fFXOHEdcOJ7omhdlXV40J+XdXIBFUnJaQIq0niOuUSYCQokyjSV8QQAABBBAoiIC9hMNve1K/7hzuP6HsXUDyWFgzLAQwX1D0t7JSDFGKWT62e5saN26s9xF7arjfS1OcmhRy3aDCnDpYcd2rII9Z6Ztph2Dm1rK683qXD78lBPqlXF7U5bCfPfk7HWjowqp22JUGdJzAwdy5JOrSiKDCmWb7g2ZSRPk5tC3CZq2kYcc1ECibACFF2UaU/iCAAAIIIFAQAQkqNt5xpNZamQ2xoHt85NYXdQlI5A7yQQQQKLyABBsvvPDdurYJLjwCHUAgpgAhRUwwPo4AAggggAAC6QnY25MmKYbpKsgpLczjzIr05LgSAggggAAC5RQgpCjnuNIrBBBAAAEECiPQv+e4kl86WLire4IXMMQ9XEtAzLBi0owRia4btx18HgEEEEAAAQSSCxBSJLfjTAQQQAABBBBIQcBVSHP5oy2JrqyXgBzef8LbutQ+9OyKsRMvVbK8hAMBBBBAAAEE8iVASJGv8aA1CCCAAAIIVFLArk+RZNmHCRcWVshnJbCQoGLshEtr/11JfDqNAAIIIIBAjgQIKXI0GDQFAQQQQACBKgvYyz7al1xT92wHCSuk7sWRA7/wfg869BITPcNCwgsdZgwfOaT231UeI/qOAAIIIIBAowUIKRotzPURQAABBBBAIJKAvewj7m4fYTfRgcWxF88oqV/BUU6BoX/8gXJ2jF7lVuDcO79ratv+bvHV6s9vHtnUNnBzBNIUIKRIU5NrIYAAAggggEBdAvayD5lNMaltRF3XdJ0s9zn11nmvboWEFjrASP1GXBABBBBosAAhRYOBuXzmAoQUmZNzQwQQQAABBBAIErCXfSQtohlX2Qwu5FwdXsh/S6Ahh6sYZ9z78HkEEEAgTQFCijQ1uVYeBAgp8jAKtAEBBBBAAAEEagISBHyp68VaICAzKWRGBUf+BZo97T3/QrQQgfQF3v/+96mLhl6Q/oW5IgJNEiCkaBI8t0UAAQQQQAABfwGpGdG35RXvA1LQMo0imngjgAACCCCAQP4FCCnyP0a0EAEEEEAAgUoKPNL1Um1HjrSLaFYSlE4jgAACCCBQAAFCigIMEk1EAAEEEECgigJ2Ec0F3ePr3pK0io70GQEEEEAAgSIJEFIUabRoKwIIIIAAAhUTkCUfertQWfaRVRHNijHTXQQQQAABBHIjQEiRm6GgIQgggAACCCBgC2S1JSnyCCCAAAIIIJAPAUKKfIwDrUAAAQQQQAABHwG7iCazKXhUEEAAAQQQKK8AIUV5x5aeIYAAAgggUAoBZlOUYhjpBAIIIIAAApEECCkiMfEhBBBAAAEEEGimALMpmqnPvRFAAAEEEMhOgJAiO2vuhAACCCCAAAIJBWQ2xZe6XlTyuxxtc8Z4vzgQQAABBBBAoFwChBTlGk96gwACCCCAQGkFmE1R2qGlYwgggAACCNQECCl4GBBAAAEEEECgEAIyi0K2JP3pD9/22jupbYRqX3JNIdpOIxFAAAEEEEAgmgAhRTQnPoUAAggggAACORCQgOKRrpe8lgwbeZG6q3uC9zsHAggggAACCJRDgJCiHONILxBAAAEEEKiMgIQUzKaozHDTUQQQQACBigkQUlRswOkuAggggAACRRewZ1PIko+rP3ZZ0btF+xFAAAEEEEBAKUVIwWOAAAIIIIAAAoUTYDZF4YaMBiOAAAIIIBBJgJAiEhMfQgABBBBAAIE8CUgRzY13HKk1aUH3eGZT5GmAaAsCCCCAAAIJBQgpEsJxGgIIIIAAAgg0V8CcTSHLPSSo4EAAAQQQQACBYgsQUhR7/Gg9AggggAAClRVgNkVlh56OI4AAAgiUWICQosSDS9cQQAABBBAou0DfllfU4f4TXjdlK9Llj7aUvcv0DwEEEEAAgVILEFKUenjpHAIIIIAAAuUWsGdTyE4fk9pGlLvT9A4BBBBAAIESCxBSlHhw6RoCCCCAAAJVEJCZFDKjQg5mU1RhxOkjAggggECZBQgpyjy69A0BBBBAAIEKCMhsCgkpfvrDt73eykwKmVFR9ePQwSNq374n1MbuVWro0CFV54jcf9wiUw34IG7J3DgLAQQGCxBS8FQggAACCCCAQOEFJKCQ3T7kkNkUElLIjh95Ok6dOq2Wdq5RK1YuVuPGjVXyUvf662+o9s/cEtjMTd3b1bRpk9UNfzZebVj/kJr7uXbv/LDj3LnzannXOjVr1q2qdbJ/rQ65vhzLuhbWLvnyy8fUvfesVQ88uDrSvcLaYv+7bRHlfO0Q1BfzOmV0i+KUhnWS++T5eUvSH85BAIHmCRBSNM+eOyOAAAIIIIBAigJ535JUXvw3rN+qNvesUcOHD/NCiueeOzggHLA57G+n/b6tlpf+jnmd6sD+50NFp8+Yqnp39dTaMLOtfcA58zpmq0suuVhtfWjHoL9Pa1ZGkpBCzll7/2a1+r6lXtuDjjK46Zf+Xb17Q8dUxsxvbJJYh92waM9bWH/4dwQQyJcAIUW+xoPWIIAAAggggEBCAbuIZtucMUp+5eWwQwr58zPf/mf19wvnOZvoernUL65TpnzSdwaGa8aBKxAxr//97x312iCzOvQLvoQBW3oeiTxzI45z0hfnvsefrLXT735ldotjrD8bxVqemfXrtoRefuWqJYNCtSI8b6Ed4wMIIJArAUKKXA0HjUEAAQQQQACBegT69xxX8ksOWfZxV/cE7/c8HPa3+xJS7P5Kn1qx8u5BNSOCps7rb7GXLVvoXMYh99m0aXtttoTfS+rD23epmTffVFvOIX++cWqr+tbTz6o7Pz/Hm60g5+748h61aPH8VOtahL04Sxgxv6Mz8rDpmQRygt8SlzK4RQYxPhhmneSa5jlFeN7q7SPnI4BAtgKEFNl6czcEEEAAAQQQaKCAXURT6lIs6B7fwDtGv7S8eL/66vHaN9F+yxf0y/Ts2Z/ynS2hP9Pa2uJdL+o34bq15jfiQcsogoKUqD2vp21R7yGfK5tbnL7rz2ZlXc99Gv28JXHjHAQQyJcAIUW+xoPWIIAAAggggECdAnld9iEvdlddNaYWPMhsCVchTPnc2bNn1bMHvqOOHv2Rr8Yz/X1eTYs33/x5XTt42O0yb5hGSOHqQCO+3a+CW5IfjUZYJ2mHGaSYPwdZPG/1tJdzEUAgewFCiuzNuSMCCCCAAAIINFjAXvbR7N0+/F4Uw2osuIIMv6UgEijcPndRYLBhFs2UIZCp+ks771Obe+73logEFd4MKs4YdzjjvDhLf7dt3VlbgmL/2XXvsrjJ+NiFTV39lcDKb9eTONZxxrFIz1ucfvFZBBBovgAhRfPHgBYggAACCCCAQMoC9rIPqUux/FH/bThTvv2gy/ntyhE2U8E1NT4opPCrcSENsl/u9QvwxInXq8d2b3NuNRrWvqRucV6cXUGOn6duT1ndknjHsY5z/bBnI0/PW5x+8VkEEGi+ACFF88eAFiCAAAIIIIBAAwTsZR/Nqk8RVAQz6N+ExLUrh98ykbjfbOtCmV/re8rbwWP06I8MKjoZ9iKadNiivjgH3V+Wd8ghNTnso6xuSbyjWse9dpGet7h94/MIINBcAUKK5vpzdwQQQAABBBBooMDh/hOqb8srtTs0Y1tSmQnwwgvf9a0bYe+OoBvrtxuF30tnWKDgWiZhBx72n8OumXToorw4h33GL+Aps1sS7zDHJNeUc8KejTw9b0n7yHkIINAcAUKK5rhzVwQQQAABBBDISMCsTyG3nNQ2QkmNiiwOeZG795616oEHVzuXU+g2yKwAswBm0E4VfqFG3G+25d5+szJ0u+wX0aCdGeJ4hr04h20XarZvw/qtanPPmtqWqR3zOpVrZ5QyuMUxNsOupZ1r1IqVi53PYNydOnb29njFX4v0vCVx4xwEEGieACFF8+y5MwIIIIAAAghkJGAHFVkt/ZAXwGnTJvsWNdTd17MCRo260vu8FLM060TIbIz5HZ01Lf2iaPKl8c22Di6Wd61Tu3r3epe376WLbfrVsYgypGEhRVhBUfMe8tmPfnS091dlcosbHpjbypo+YdZRxsv1mSI9b0n7yHkIINAcAUKK5rhzVwQQQAABBBDIWMAOKqSY5l3dE5T8zhFPIKxwZbyrVefTuCUba9ySuXEWAkUVIKQo6sjRbgQQQAABBBCILeAKKpq9PWnsTnACAggggAACJRYgpCjx4NI1BBBAAAEEEBgsYAcV8gmpU9F22xhmVfDAIIAAAggg0GQBQoomDwC3RwABBBBAAIHsBexdP6QFsuxj0owRSnYA4UAAAQQQQACB5ggQUjTHnbsigAACCCCAQJMFTr/1G3V4/wklMyvMQ8IKKazZMv0K73cOBBBAAAEEEMhOgJAiO2vuhAACCCCAAAI5FJCwom/LK+qnP3x7UOvMwEL+cfjIISwJyeEY0iQEEEAAgfIIEFKUZyzpCQIIIIAAAggkFNCzKmRmhfx32CHhhQQWHAggUFyBGbeNZrZUcYePlpdYgJCixINL1xBAAAEEEEAgvkDcwCL+HTgDAQTyICA7+0jRXA4EEMiXACFFvsaD1iCAAAIIIIBAjgR0YHHs6BmvVafeOh9ppkWOukBTEEDAR4CQgkcDgXwKEFLkc1xoFQIIIIAAAgjkWEDCCwksOBBAoLgC1Jgp7tjR8nILEFKUe3zpHQIIIIAAAggggAACCCCAAAKFESCkKMxQ0VAEEEAAAQQQQAABBBBAAAEEyi1ASFHu8aV3CCCAAAIIIIAAAggggAACCBRGgJCiMENFQxFAAAEEEEAAAQQQQAABBBAotwAhRbnHl94hgAACCCCAAAIIIIAAAgggUBgBQorCDBUNRQABBBBAAAEEEEAAAQQQQKDcAoQU5R5feocAAggggAACCCCAAAIIIIBAYQQIKQozVDQUAQQQQAABBBBAAAEEEEAAgXILEFKUe3zpHQIIIIAAAggggAACCCCAAAKFESCkKMxQ0VAEEEAAAQQQQAABBBBAAAEEyi1ASFHu8aV3CCCAAAIIIIAAAggggAACCBRGgJCiMENFQxFAAAEEEEAAAQQQQAABBBAotwAhRbnHl94hgAACCCCAAAIIIIAAAgggUBgBQorCDBUNRQABBBBAAAEEEEAAAQQQQKDcAoQU5R5feocAAggggAACCCCAAAIIIIBAYQQIKQozVDQUAQQQQAABBBBAAAEEEEAAgXILEFKUe3zpHQIIIIAAAggggAACCCCAAAKFESCkKMxQ0VAEEEAAAQQQQAABBBBAAAEEyi1ASFHu8aV3CCCAAAIIIIAAAggggAACCBRGgJCiMENFQxFAAAEEEEAAAQQQQAABBBAotwAhRbnHl94hgAACCCCAAAIIIIAAAgggUBgBQorCDBUNRQABBBBAAAEEEEAAAQQQQKDcAoQU5R5feocAAggggAACCCCAAAIIIIBAYQQIKQozVDQUAQQQQAABBBBAAAEEEEAAgXILEFKUe3zpHQIIIIAAAggggAACCCCAAAKFESCkKMxQ0VAEEEAAAQQQQAABBBBAAAEEyi1ASFHu8aV3CCCAAAIIIIAAAggggAACCBRGgJCiMENFQxFAAAEEEEAAAQQQQAABBBAotwAhRbnHl94hgAACCCCAAAIIIIAAAgggUBiB/w8aI8s9F6fWjQAAAABJRU5ErkJggg==;" vertex="1" parent="1">
          <mxGeometry x="-710" y="-320" width="1065" height="575" as="geometry" />
        </mxCell>
      </root>
    </mxGraphModel>
  </diagram>
</mxfile>
